<svg width="98" height="98" viewBox="0 0 98 98" fill="none" xmlns="http://www.w3.org/2000/svg">
<g clip-path="url(#clip0_217_201)">
<path d="M9.32644 57.9792C9.32644 79.663 26.9633 97.3056 48.6528 97.3056C53.8182 97.3091 58.9336 96.2943 63.7065 94.3192C68.4794 92.3441 72.8161 89.4475 76.4686 85.795C80.1211 82.1425 83.0177 77.8058 84.9928 73.0329C86.9679 68.26 87.9827 63.1446 87.9791 57.9792C87.9786 57.5472 87.8068 57.133 87.5013 56.8276C87.1958 56.5221 86.7816 56.3502 86.3496 56.3497H10.9559C10.5239 56.3502 10.1097 56.5221 9.80427 56.8276C9.49879 57.133 9.32695 57.5472 9.32644 57.9792V57.9792ZM84.6837 59.6087C84.5742 62.0541 84.2164 64.4821 83.6159 66.8552H13.6935C13.0896 64.4826 12.7305 62.0545 12.6218 59.6087H84.6837ZM14.0596 68.1971H83.2479C81.0428 75.6618 76.482 82.2129 70.2468 86.8719C64.0115 91.5308 56.4364 94.0477 48.6528 94.0466C32.3119 94.0466 18.4765 83.1232 14.0596 68.1971Z" fill="#6D6D6D"/>
<path d="M59.9902 86.8193C63.6676 85.2335 66.9366 82.833 69.5505 79.799C69.6667 79.664 69.8317 79.5807 70.0093 79.5674C70.1869 79.5541 70.3626 79.6119 70.4975 79.7281C70.6325 79.8443 70.7158 80.0093 70.7291 80.1869C70.7424 80.3645 70.6846 80.5401 70.5685 80.6751C67.8175 83.8638 64.3789 86.3867 60.5116 88.0538C60.4279 88.0892 60.338 88.1075 60.2471 88.1075C60.0923 88.1079 59.9421 88.0547 59.8221 87.957C59.702 87.8594 59.6194 87.7232 59.5882 87.5715C59.5571 87.4199 59.5793 87.2622 59.6512 87.1251C59.7231 86.988 59.8401 86.8799 59.9825 86.8193H59.9902Z" fill="#6D6D6D"/>
<path d="M81.8714 21.1182C85.0249 17.7883 84.2179 12.8749 84.1814 12.6832C84.1323 12.3994 84.0088 12.1338 83.8236 11.9133C83.6384 11.6928 83.3981 11.5253 83.1271 11.4279C82.8561 11.3305 82.5641 11.3067 82.2809 11.3588C81.9977 11.4109 81.7334 11.5371 81.5148 11.7247L74.3604 17.8611L76.5286 7.11032C76.5864 6.82354 76.566 6.52646 76.4694 6.2503C76.3729 5.97413 76.2037 5.72906 75.9798 5.5408C75.7559 5.35254 75.4854 5.22805 75.1967 5.1804C74.9081 5.13274 74.6119 5.16367 74.3393 5.26995C74.1246 5.35239 69.0425 7.37871 67.6296 12.2269C66.9817 14.4392 67.2041 16.8163 68.2853 19.32C66.8891 19.1013 65.4614 19.2055 64.1119 19.6248C61.7596 20.3916 59.9576 22.163 58.7575 24.8833C58.3927 25.7351 58.0822 26.6091 57.8278 27.5001C57.8278 27.5192 57.8163 27.5403 57.8105 27.5595C56.0181 33.6825 54.9867 43.9502 55.1822 49.3487C55.2106 50.2363 55.49 51.0978 55.9881 51.8331C56.4862 52.5684 57.1826 53.1474 57.9965 53.5029C58.6001 53.7709 59.2531 53.91 59.9135 53.9112C61.0304 53.9101 62.1103 53.5111 62.9597 52.7859C65.4346 50.6887 68.8316 47.1632 71.828 43.5841C74.1495 40.8082 76.057 38.2164 77.3433 36.0884C77.8221 35.3113 78.2511 34.5045 78.6278 33.6729C79.8297 30.9546 79.9237 28.4317 78.9076 26.1754C78.478 25.238 77.8861 24.3839 77.1593 23.6525C79.0936 23.2308 80.6694 22.3873 81.8714 21.1182ZM71.0171 23.6104L71.0669 23.6353L71.1244 23.664L71.1762 23.689H71.1915L71.2279 23.7024L71.2931 23.7273L71.3276 23.7407C71.3928 23.7618 74.7783 24.9025 75.9458 27.5269C76.5669 28.9206 76.4711 30.5002 75.6506 32.3559C75.4127 32.8809 75.1472 33.3928 74.855 33.8896L72.1424 32.4422C72.0645 32.3976 71.9785 32.3691 71.8894 32.3583C71.8003 32.3476 71.7099 32.3548 71.6236 32.3796C71.5374 32.4044 71.457 32.4462 71.3872 32.5026C71.3174 32.559 71.2596 32.6289 71.2173 32.708C71.1749 32.7871 71.1489 32.874 71.1407 32.9633C71.1326 33.0527 71.1424 33.1428 71.1697 33.2283C71.197 33.3138 71.2411 33.393 71.2995 33.4611C71.3579 33.5293 71.4294 33.585 71.5097 33.625L74.1572 35.0379C72.7309 37.2157 71.1726 39.304 69.4911 41.2913L64.2748 38.8892C64.1131 38.8148 63.9285 38.8075 63.7615 38.8692C63.5945 38.9309 63.4588 39.0563 63.3843 39.218C63.3099 39.3797 63.3026 39.5643 63.3643 39.7313C63.426 39.8983 63.5514 40.034 63.7131 40.1085L68.5939 42.3668C65.9101 45.505 63 48.4898 60.8567 50.3053C60.6464 50.4842 60.39 50.6003 60.1168 50.6401C59.8436 50.6799 59.5646 50.6419 59.312 50.5304C59.0595 50.4189 58.8434 50.2385 58.6887 50.0098C58.534 49.7811 58.4469 49.5134 58.4374 49.2375C58.2591 44.3317 59.1409 35.2181 60.7014 29.3308L65.9062 31.6677C65.9923 31.7069 66.0858 31.7272 66.1804 31.7271C66.3338 31.7271 66.4826 31.6746 66.6019 31.5782C66.7213 31.4818 66.804 31.3474 66.8363 31.1974C66.8686 31.0474 66.8485 30.8909 66.7793 30.7539C66.7102 30.6169 66.5962 30.5078 66.4564 30.4446L61.0733 28.0272C61.2601 27.411 61.4809 26.8055 61.7347 26.2137C62.5552 24.358 63.6518 23.2231 65.1049 22.7439C67.8463 21.8294 70.9845 23.5797 71.0171 23.6008V23.6104ZM72.566 10.285L71.0899 17.5966C70.4803 15.9824 70.3634 14.5025 70.7468 13.1701C71.0888 12.0623 71.7162 11.064 72.566 10.2754V10.285ZM80.7212 16.7032C80.4904 17.5203 80.0686 18.2707 79.4904 18.8925C78.7236 19.7015 77.6545 20.2389 76.2832 20.5047L80.7212 16.7032Z" fill="#6D6D6D"/>
<path d="M38.8337 29.0644C36.4258 23.1215 30.9623 19.2088 25.3932 19.2088H25.2379C25.2207 19.1628 25.2015 19.1149 25.1824 19.0689C24.0877 16.3908 20.7827 15.1945 17.8017 16.4023C16.4295 16.9433 15.2965 17.958 14.6079 19.2625C14.2637 19.9005 14.0634 20.6061 14.0214 21.3299C13.9793 22.0536 14.0964 22.7777 14.3644 23.4512C14.5876 24.0047 14.9128 24.5113 15.323 24.9446C12.9286 28.8765 12.5854 34.179 14.5025 38.9257C16.9122 44.8685 22.301 48.7735 27.8988 48.7831C28.7692 50.2152 30.4044 51.0452 32.1719 51.0452C32.9214 51.044 33.6636 50.8976 34.3573 50.6139C37.0949 49.5058 38.5078 46.5881 37.5071 44.1266C37.4783 44.0595 37.4495 43.9924 37.4189 43.9253C40.3558 39.9244 40.9309 34.2385 38.8337 29.0644ZM34.1848 42.7368C33.9049 43.0443 33.7534 43.4474 33.7616 43.8632C33.7698 44.279 33.937 44.6758 34.2289 44.972C34.3379 45.0818 34.4239 45.2121 34.482 45.3554C34.8021 46.1433 34.1829 47.1709 33.14 47.5984C32.0971 48.0259 30.9258 47.7192 30.6057 46.9293C30.5842 46.8699 30.5669 46.8091 30.5539 46.7472C30.4668 46.3584 30.2402 46.0151 29.9169 45.7823C29.5936 45.5494 29.1962 45.4433 28.7998 45.4839C24.1989 45.9497 19.5731 42.7502 17.5295 37.7064C15.8042 33.4582 16.3256 28.7116 18.8503 25.6156C19.0072 25.4233 19.1181 25.1977 19.1746 24.9561C19.231 24.7144 19.2315 24.4631 19.176 24.2212C19.1205 23.9793 19.0106 23.7533 18.8544 23.5604C18.6983 23.3675 18.5002 23.2128 18.2752 23.1081C17.8802 22.9383 17.5649 22.6243 17.3934 22.2301C17.3077 21.9905 17.2741 21.7354 17.2949 21.4818C17.3157 21.2283 17.3905 20.9821 17.5142 20.7597C17.844 20.1441 18.3843 19.6678 19.0363 19.4178C20.3284 18.8925 21.7623 19.2912 22.1668 20.2862C22.2436 20.4826 22.2795 20.6927 22.2723 20.9035C22.2659 21.1414 22.3119 21.3779 22.4068 21.5961C22.5018 21.8144 22.6435 22.0091 22.8219 22.1667C23.0003 22.3243 23.211 22.4408 23.4394 22.5081C23.6677 22.5753 23.908 22.5917 24.1433 22.556C24.5671 22.4916 24.9952 22.4596 25.4239 22.4601C29.6836 22.4601 33.9145 25.5734 35.8239 30.2817C37.6259 34.7599 36.9856 39.6465 34.1848 42.7368Z" fill="#6D6D6D"/>
<path d="M32.1393 40.6088C32.0477 40.6546 31.9466 40.6783 31.8441 40.6778C31.6929 40.6771 31.5463 40.6254 31.4282 40.5309C31.31 40.4365 31.2273 40.3049 31.1933 40.1575C31.1594 40.0102 31.1762 39.8556 31.2411 39.719C31.306 39.5824 31.4151 39.4717 31.5508 39.4049C32.458 38.9571 33.1505 38.1677 33.4765 37.2099C33.8024 36.2522 33.7352 35.2042 33.2895 34.296C33.2146 34.1365 33.2055 33.9539 33.264 33.7877C33.3226 33.6215 33.4442 33.4851 33.6026 33.4078C33.7609 33.3305 33.9433 33.3186 34.1104 33.3747C34.2774 33.4307 34.4157 33.5503 34.4954 33.7074C34.793 34.3163 34.9677 34.9778 35.0096 35.6542C35.0515 36.3305 34.9597 37.0085 34.7395 37.6494C34.5193 38.2903 34.1749 38.8816 33.7262 39.3893C33.2774 39.8971 32.733 40.3115 32.124 40.6088H32.1393Z" fill="#6D6D6D"/>
<path d="M47.1172 50.75C47.1168 51.3625 47.2982 51.9614 47.6382 52.4708C47.9783 52.9802 48.4618 53.3773 49.0276 53.6119C49.5934 53.8465 50.216 53.908 50.8168 53.7886C51.4175 53.6692 51.9694 53.3742 52.4025 52.9411C52.8356 52.508 53.1305 51.9562 53.2499 51.3555C53.3693 50.7547 53.3078 50.132 53.0733 49.5662C52.8387 49.0004 52.4416 48.5169 51.9321 48.1769C51.4227 47.8368 50.8238 47.6555 50.2113 47.6559C49.3912 47.6574 48.6051 47.9839 48.0252 48.5638C47.4452 49.1437 47.1187 49.9299 47.1172 50.75ZM48.4592 50.75C48.4592 50.403 48.5621 50.0638 48.7549 49.7753C48.9477 49.4868 49.2218 49.2619 49.5424 49.1292C49.8631 48.9965 50.2159 48.9619 50.5562 49.0297C50.8965 49.0976 51.209 49.2648 51.4543 49.5103C51.6995 49.7559 51.8664 50.0686 51.9339 50.409C52.0014 50.7494 51.9663 51.1021 51.8333 51.4226C51.7002 51.7431 51.4751 52.0169 51.1864 52.2094C50.8977 52.4019 50.5584 52.5045 50.2113 52.5041C49.7465 52.5036 49.3008 52.3186 48.9722 51.9897C48.6437 51.6608 48.4592 51.2149 48.4592 50.75Z" fill="#6D6D6D"/>
<path d="M34.6085 11.3106C34.6085 10.5956 34.3965 9.89676 33.9994 9.30227C33.6023 8.70777 33.0379 8.24436 32.3774 7.97059C31.717 7.69683 30.9902 7.625 30.289 7.7642C29.5877 7.9034 28.9435 8.24736 28.4377 8.75263C27.9319 9.25789 27.5873 9.90176 27.4473 10.6029C27.3074 11.304 27.3784 12.0308 27.6515 12.6915C27.9246 13.3522 28.3874 13.9172 28.9814 14.3149C29.5755 14.7127 30.2742 14.9254 30.9891 14.9261C31.9483 14.9261 32.8684 14.5453 33.547 13.8674C34.2257 13.1894 34.6075 12.2698 34.6085 11.3106ZM33.2665 11.3106C33.2669 11.7602 33.134 12.1998 32.8846 12.5738C32.6351 12.9479 32.2804 13.2396 31.8652 13.4121C31.45 13.5846 30.993 13.6301 30.5519 13.5429C30.1109 13.4557 29.7056 13.2397 29.3873 12.9222C29.069 12.6047 28.8519 12.1999 28.7636 11.7591C28.6753 11.3183 28.7197 10.8611 28.8911 10.4455C29.0625 10.0299 29.3534 9.6744 29.7268 9.42403C30.1002 9.17365 30.5395 9.03962 30.9891 9.03886C31.5923 9.03835 32.171 9.27734 32.598 9.70331C33.0251 10.1293 33.2655 10.7074 33.2665 11.3106Z" fill="#6D6D6D"/>
<path d="M86.8346 41.228C86.835 40.4565 86.6065 39.7022 86.178 39.0606C85.7495 38.419 85.1403 37.9189 84.4275 37.6237C83.7147 37.3284 82.9304 37.2513 82.1737 37.402C81.417 37.5527 80.7221 37.9245 80.1768 38.4703C79.6315 39.0161 79.2604 39.7114 79.1104 40.4682C78.9605 41.2251 79.0384 42.0093 79.3344 42.7219C79.6303 43.4344 80.131 44.0431 80.773 44.4709C81.4151 44.8988 82.1696 45.1265 82.9411 45.1254C83.9736 45.1229 84.9631 44.7113 85.6928 43.9809C86.4225 43.2504 86.8331 42.2606 86.8346 41.228ZM85.4927 41.228C85.4927 41.7341 85.3426 42.2287 85.0613 42.6494C84.7801 43.0701 84.3803 43.3979 83.9127 43.5913C83.4451 43.7846 82.9306 43.835 82.4343 43.7358C81.9381 43.6367 81.4824 43.3925 81.125 43.0343C80.7676 42.6761 80.5245 42.2199 80.4265 41.7234C80.3284 41.227 80.3799 40.7126 80.5743 40.2454C80.7688 39.7782 81.0975 39.3792 81.5188 39.0989C81.9401 38.8186 82.4351 38.6696 82.9411 38.6707C83.6182 38.6727 84.2669 38.943 84.7452 39.4223C85.2234 39.9016 85.4922 40.5509 85.4927 41.228Z" fill="#6D6D6D"/>
<path d="M14.2072 49.4177C14.2069 49.8473 14.3339 50.2674 14.5724 50.6249C14.8108 50.9823 15.1499 51.261 15.5467 51.4257C15.9436 51.5904 16.3804 51.6337 16.8018 51.5501C17.2233 51.4665 17.6105 51.2598 17.9144 50.9561C18.2184 50.6524 18.4254 50.2654 18.5094 49.844C18.5934 49.4226 18.5505 48.9858 18.3861 48.5888C18.2218 48.1918 17.9434 47.8525 17.5862 47.6137C17.2289 47.375 16.8089 47.2476 16.3793 47.2476C15.8037 47.2481 15.2518 47.4768 14.8447 47.8836C14.4375 48.2904 14.2083 48.8421 14.2072 49.4177ZM15.5492 49.4177C15.5492 49.2535 15.5979 49.093 15.6891 48.9565C15.7803 48.82 15.9099 48.7136 16.0616 48.6508C16.2133 48.5879 16.3802 48.5715 16.5412 48.6035C16.7022 48.6356 16.8501 48.7146 16.9662 48.8307C17.0823 48.9468 17.1614 49.0947 17.1934 49.2557C17.2254 49.4167 17.209 49.5836 17.1462 49.7353C17.0833 49.887 16.9769 50.0166 16.8404 50.1078C16.7039 50.1991 16.5434 50.2477 16.3793 50.2477C16.1591 50.2477 15.948 50.1603 15.7923 50.0046C15.6366 49.8489 15.5492 49.6378 15.5492 49.4177Z" fill="#6D6D6D"/>
<path d="M63.6518 6.28792C63.6518 5.85826 63.5243 5.43824 63.2856 5.08102C63.0468 4.72379 62.7075 4.4454 62.3105 4.28106C61.9135 4.11672 61.4767 4.07382 61.0553 4.15778C60.6339 4.24175 60.2469 4.4488 59.9432 4.75275C59.6395 5.05671 59.4328 5.4439 59.3492 5.86536C59.2657 6.28681 59.3089 6.7236 59.4736 7.12045C59.6383 7.5173 59.917 7.85639 60.2744 8.09482C60.6319 8.33325 61.052 8.46032 61.4817 8.45994C62.0572 8.45892 62.6089 8.2297 63.0157 7.82253C63.4225 7.41536 63.6513 6.86349 63.6518 6.28792ZM62.3098 6.28792C62.3098 6.45218 62.2611 6.61274 62.1698 6.74929C62.0785 6.88584 61.9488 6.99223 61.797 7.055C61.6452 7.11777 61.4782 7.1341 61.3171 7.10191C61.156 7.06973 61.0081 6.99048 60.8921 6.8742C60.7761 6.75792 60.6972 6.60983 60.6654 6.44868C60.6336 6.28754 60.6503 6.12058 60.7134 5.96893C60.7765 5.81729 60.8832 5.68778 61.02 5.5968C61.1567 5.50582 61.3174 5.45746 61.4817 5.45784C61.7015 5.45835 61.9121 5.54603 62.0674 5.70164C62.2226 5.85726 62.3098 6.0681 62.3098 6.28792Z" fill="#6D6D6D"/>
<path d="M50.6618 29.9462C53.6103 26.0469 56.829 20.0561 55.3356 13.6724C54.0972 8.3353 49.8011 3.79381 42.5719 0.172507C42.3773 0.0754871 42.1652 0.0183597 41.9482 0.00448394C41.7311 -0.00939183 41.5135 0.0202641 41.3081 0.0917082C41.1027 0.163152 40.9137 0.274942 40.7521 0.420505C40.5905 0.566068 40.4597 0.742466 40.3673 0.939327C38.2585 5.42522 36.399 9.85935 36.9166 14.7766C37.5032 20.4089 41.1878 25.5849 48.1812 30.6018C48.3142 30.697 48.4609 30.7714 48.6164 30.8223C48.3825 34.3842 47.6789 37.4323 46.5555 39.7136C46.5165 39.7926 46.4934 39.8786 46.4875 39.9665C46.4817 40.0545 46.4933 40.1428 46.5216 40.2263C46.5499 40.3098 46.5944 40.3869 46.6525 40.4532C46.7106 40.5195 46.7813 40.5737 46.8603 40.6126C46.953 40.6576 47.0545 40.6812 47.1575 40.6817C47.2827 40.6815 47.4053 40.6464 47.5116 40.5804C47.618 40.5144 47.7038 40.42 47.7594 40.3078C48.9844 37.8157 49.7417 34.5126 49.9736 30.6708C50.1452 30.568 50.296 30.4341 50.4184 30.2759C50.4989 30.1724 50.5832 30.0631 50.6676 29.95L50.6618 29.9462ZM49.9449 25.1689C49.6439 20.5124 48.6547 15.9115 47.1862 12.5662C47.1519 12.484 47.1016 12.4094 47.0381 12.3468C46.9746 12.2842 46.8994 12.2349 46.8166 12.2017C46.7339 12.1686 46.6454 12.1522 46.5563 12.1537C46.4672 12.1551 46.3792 12.1742 46.2976 12.21C46.216 12.2458 46.1423 12.2975 46.0809 12.3621C46.0194 12.4266 45.9715 12.5028 45.9398 12.5861C45.9081 12.6694 45.8934 12.7582 45.8964 12.8473C45.8994 12.9364 45.9202 13.0239 45.9574 13.1049C47.5409 16.7166 48.5435 21.8582 48.6835 26.9077C43.3943 22.8129 40.5993 18.7257 40.1526 14.4354C39.7826 10.8735 41.0133 7.39211 42.6007 3.87049C48.0202 6.87451 51.237 10.4153 52.1667 14.4143C53.0677 18.2752 51.7354 22.092 49.9449 25.1689Z" fill="#6D6D6D"/>
</g>
<defs>
<clipPath id="clip0_217_201">
<rect width="97.3056" height="97.3056" fill="white"/>
</clipPath>
</defs>
</svg>
