<svg width="98" height="98" viewBox="0 0 98 98" fill="none" xmlns="http://www.w3.org/2000/svg">
<path d="M90.0737 49.4999C90.0737 46.52 88.89 43.6622 86.7829 41.5552C84.6759 39.4481 81.8181 38.2644 78.8382 38.2644H77.6141C79.1377 36.6754 80.1607 34.6738 80.556 32.5082C80.9514 30.3426 80.7016 28.1086 79.8378 26.0839C78.974 24.0591 77.5342 22.3328 75.6973 21.1195C73.8605 19.9062 71.7076 19.2595 69.5063 19.2597H68.5188C68.0761 16.6074 66.5704 14.6957 64.0303 13.5328C61.2556 12.2638 57.522 12.1046 54.578 12.1046C53.0224 12.1428 51.5066 11.6109 50.3159 10.6092C49.3999 9.79307 48.8551 8.7444 48.8551 7.78141C48.8551 5.48412 49.8406 3.77238 50.2833 3.51327C50.7432 3.51868 51.1865 3.34116 51.5155 3.01977C51.8446 2.69837 52.0325 2.25942 52.0379 1.79948C52.0433 1.33955 51.8658 0.896303 51.5444 0.567253C51.223 0.238203 50.784 0.0503055 50.3241 0.0448945C49.8222 0.00817048 37.9542 -0.746712 32.262 6.21656C29.5628 9.51152 28.7345 13.8939 29.7995 19.2597H28.4917C26.2904 19.2595 24.1375 19.9059 22.3003 21.1186C20.4631 22.3312 19.0225 24.0568 18.1574 26.081C17.2923 28.1052 17.0408 30.3389 17.434 32.5049C17.8273 34.6708 18.8481 36.6735 20.3696 38.2644H19.1454C16.3024 38.2625 13.5644 39.3385 11.4832 41.2754C9.40213 43.2124 8.13271 45.8663 7.93087 48.7022C7.72902 51.5381 8.60977 54.345 10.3956 56.5572C12.1814 58.7694 14.7394 60.2224 17.5541 60.6232L25.4334 96.6371C25.5185 97.0235 25.7329 97.3692 26.0412 97.617C26.3495 97.8648 26.7333 98 27.1288 98H70.8691C71.2647 98 71.6484 97.8648 71.9567 97.617C72.2651 97.3692 72.4795 97.0235 72.5646 96.6371L80.4296 60.6211C83.1049 60.2349 85.5518 58.8985 87.3227 56.8564C89.0935 54.8143 90.0701 52.2029 90.0737 49.4999ZM57.4139 94.5316L59.5275 60.7354H67.9067L63.6794 94.5316H57.4139ZM34.3186 94.5316L30.0912 60.7354H38.4704L40.5841 94.5316H34.3186ZM39.9006 60.7354H48.2859V94.5316H42.0143L39.9006 60.7354ZM49.7141 60.7354H58.0974L55.9837 94.5316H49.7141V60.7354ZM21.151 60.7354H28.6529L32.8802 94.5316H28.5305L21.151 60.7354ZM69.4736 94.5316H65.1178L69.3451 60.7354H76.8551L69.4736 94.5316ZM78.877 57.267H19.1189C17.059 57.2616 15.0855 56.4381 13.6327 54.9776C12.1799 53.5172 11.3668 51.5394 11.3722 49.4795C11.3776 47.4195 12.2011 45.446 13.6616 43.9932C15.122 42.5405 17.0998 41.7273 19.1597 41.7327H45.652C46.1119 41.7327 46.553 41.55 46.8783 41.2248C47.2035 40.8996 47.3862 40.4585 47.3862 39.9986C47.3862 39.5386 47.2035 39.0975 46.8783 38.7723C46.553 38.4471 46.1119 38.2644 45.652 38.2644H28.4917C26.4533 38.2313 24.5095 37.3984 23.0796 35.9452C21.6498 34.4919 20.8484 32.5349 20.8484 30.4962C20.8484 28.4575 21.6498 26.5005 23.0796 25.0473C24.5095 23.5941 26.4533 22.7611 28.4917 22.7281H31.5908C31.7306 22.7649 31.8746 22.7835 32.0192 22.7832C32.163 22.7825 32.3061 22.7647 32.4457 22.7301C32.6664 22.6741 32.874 22.5752 33.0566 22.439C33.2391 22.3028 33.3931 22.132 33.5096 21.9362C33.6261 21.7405 33.7029 21.5238 33.7357 21.2984C33.7684 21.073 33.7564 20.8433 33.7004 20.6226L33.6902 20.5818C33.6902 20.5818 33.6902 20.5634 33.6902 20.5532C33.6902 20.543 33.6902 20.5389 33.6902 20.5308C32.2375 15.3057 32.6701 11.2294 34.9612 8.41592C37.7319 5.01895 42.7141 3.92744 46.1967 3.60712C45.6801 4.93484 45.4132 6.34654 45.4092 7.77121C45.4092 9.74207 46.3681 11.7211 48.0411 13.1982C49.8554 14.7541 52.1738 15.5967 54.5637 15.5689C61.7555 15.5689 64.269 16.944 64.9688 19.2597H54.3719C53.912 19.2597 53.4709 19.4424 53.1457 19.7676C52.8204 20.0929 52.6377 20.534 52.6377 20.9939C52.6377 21.4538 52.8204 21.8949 53.1457 22.2201C53.4709 22.5454 53.912 22.7281 54.3719 22.7281H69.5063C71.5447 22.7611 73.4885 23.5941 74.9183 25.0473C76.3482 26.5005 77.1495 28.4575 77.1495 30.4962C77.1495 32.5349 76.3482 34.4919 74.9183 35.9452C73.4885 37.3984 71.5447 38.2313 69.5063 38.2644C69.0463 38.2644 68.6052 38.4471 68.28 38.7723C67.9548 39.0975 67.7721 39.5386 67.7721 39.9986C67.7721 40.4585 67.9548 40.8996 68.28 41.2248C68.6052 41.55 69.0463 41.7327 69.5063 41.7327H78.8382C80.8982 41.7276 82.8759 42.541 84.3361 43.994C85.7964 45.447 86.6196 47.4205 86.6247 49.4805C86.6299 51.5404 85.8165 53.5181 84.3635 54.9783C82.9105 56.4386 80.937 57.2618 78.877 57.267Z" fill="#6D6D6D"/>
<path d="M56.914 46.9251C56.2796 46.9247 55.6593 47.1125 55.1316 47.4646C54.6039 47.8168 54.1925 48.3176 53.9495 48.9036C53.7064 49.4896 53.6426 50.1345 53.7661 50.7568C53.8896 51.3791 54.1949 51.9507 54.6434 52.3995C55.0919 52.8482 55.6633 53.1539 56.2855 53.2778C56.9077 53.4017 57.5527 53.3383 58.1389 53.0956C58.725 52.8529 59.226 52.4419 59.5785 51.9144C59.931 51.3869 60.1192 50.7668 60.1192 50.1323C60.1181 49.2824 59.7802 48.4676 59.1794 47.8664C58.5786 47.2652 57.7639 46.9267 56.914 46.9251ZM56.914 51.9114C56.5621 51.9118 56.2179 51.8078 55.9251 51.6126C55.6322 51.4173 55.4039 51.1396 55.2689 50.8146C55.1339 50.4895 55.0984 50.1318 55.1668 49.7865C55.2352 49.4413 55.4045 49.1241 55.6533 48.8751C55.902 48.6261 56.219 48.4564 56.5641 48.3876C56.9093 48.3188 57.2671 48.3539 57.5923 48.4885C57.9175 48.6231 58.1955 48.8511 58.3911 49.1437C58.5867 49.4363 58.691 49.7804 58.691 50.1323C58.6918 50.3664 58.6465 50.5983 58.5576 50.8149C58.4687 51.0314 58.338 51.2283 58.173 51.3943C58.0079 51.5603 57.8118 51.6921 57.5958 51.7822C57.3798 51.8724 57.1481 51.919 56.914 51.9196V51.9114Z" fill="#6D6D6D"/>
<path d="M22.877 46.7415C22.877 46.3315 22.7555 45.9308 22.5277 45.5899C22.2999 45.249 21.9762 44.9833 21.5974 44.8264C21.2186 44.6695 20.8019 44.6285 20.3998 44.7085C19.9977 44.7885 19.6283 44.9859 19.3384 45.2758C19.0485 45.5657 18.8511 45.935 18.7711 46.3371C18.6911 46.7392 18.7322 47.156 18.8891 47.5348C19.046 47.9135 19.3117 48.2373 19.6525 48.465C19.9934 48.6928 20.3942 48.8144 20.8042 48.8144C21.3538 48.8138 21.8807 48.5953 22.2693 48.2066C22.6579 47.818 22.8765 47.2911 22.877 46.7415ZM20.8042 47.3862C20.6766 47.3862 20.552 47.3484 20.446 47.2776C20.34 47.2067 20.2573 47.106 20.2085 46.9882C20.1597 46.8704 20.147 46.7408 20.1718 46.6157C20.1967 46.4907 20.2581 46.3758 20.3483 46.2856C20.4384 46.1955 20.5533 46.1341 20.6784 46.1092C20.8034 46.0843 20.9331 46.0971 21.0509 46.1459C21.1687 46.1947 21.2694 46.2773 21.3402 46.3833C21.4111 46.4893 21.4489 46.614 21.4489 46.7415C21.4491 46.8262 21.4326 46.9102 21.4003 46.9885C21.368 47.0669 21.3206 47.1381 21.2606 47.198C21.2007 47.2579 21.1295 47.3054 21.0512 47.3377C20.9729 47.37 20.8889 47.3865 20.8042 47.3862Z" fill="#6D6D6D"/>
<path d="M79.3483 44.6686C78.9384 44.669 78.5378 44.791 78.1972 45.019C77.8566 45.247 77.5913 45.5709 77.4347 45.9497C77.2781 46.3285 77.2373 46.7452 77.3175 47.1472C77.3978 47.5491 77.5953 47.9183 77.8853 48.208C78.1753 48.4977 78.5446 48.6949 78.9467 48.7747C79.3487 48.8545 79.7654 48.8133 80.1441 48.6564C80.5227 48.4994 80.8463 48.2337 81.074 47.8929C81.3017 47.5521 81.4232 47.1514 81.4232 46.7415C81.4227 46.1916 81.2038 45.6643 80.8147 45.2756C80.4257 44.887 79.8982 44.6686 79.3483 44.6686ZM79.3483 47.3862C79.2209 47.3858 79.0964 47.3477 78.9907 47.2766C78.8849 47.2055 78.8026 47.1047 78.7541 46.9868C78.7056 46.869 78.6932 46.7394 78.7183 46.6145C78.7434 46.4896 78.8049 46.3749 78.8952 46.2849C78.9854 46.1949 79.1003 46.1337 79.2253 46.109C79.3503 46.0843 79.4798 46.0972 79.5975 46.1461C79.7152 46.1949 79.8158 46.2776 79.8865 46.3835C79.9573 46.4895 79.995 46.6141 79.995 46.7415C79.995 46.8263 79.9783 46.9103 79.9458 46.9887C79.9132 47.0671 79.8656 47.1382 79.8055 47.1981C79.7454 47.258 79.6741 47.3054 79.5956 47.3377C79.5172 47.37 79.4331 47.3865 79.3483 47.3862Z" fill="#6D6D6D"/>
<path d="M37.9522 26.3188C37.497 26.3188 37.0521 26.4538 36.6736 26.7067C36.2952 26.9596 36.0002 27.319 35.826 27.7395C35.6518 28.16 35.6063 28.6228 35.6951 29.0692C35.7839 29.5156 36.0031 29.9257 36.3249 30.2475C36.6468 30.5694 37.0568 30.7886 37.5032 30.8774C37.9497 30.9662 38.4124 30.9206 38.8329 30.7464C39.2534 30.5722 39.6129 30.2772 39.8657 29.8988C40.1186 29.5203 40.2536 29.0754 40.2536 28.6202C40.2531 28.01 40.0104 27.425 39.5789 26.9935C39.1475 26.562 38.5624 26.3194 37.9522 26.3188ZM37.9522 29.4914C37.7794 29.4914 37.6105 29.4401 37.4669 29.3441C37.3232 29.248 37.2113 29.1115 37.1453 28.9519C37.0793 28.7922 37.0621 28.6165 37.0959 28.4471C37.1298 28.2776 37.2132 28.122 37.3355 28C37.4578 27.878 37.6136 27.795 37.7831 27.7615C37.9526 27.728 38.1283 27.7456 38.2878 27.812C38.4473 27.8784 38.5836 27.9907 38.6793 28.1345C38.775 28.2784 38.8258 28.4474 38.8254 28.6202C38.8228 28.85 38.7296 29.0695 38.5661 29.2311C38.4026 29.3926 38.1821 29.4832 37.9522 29.4832V29.4914Z" fill="#6D6D6D"/>
<path d="M41.4267 11.6558C40.9715 11.6558 40.5266 11.7908 40.1481 12.0437C39.7697 12.2966 39.4747 12.656 39.3005 13.0765C39.1263 13.497 39.0808 13.9597 39.1696 14.4062C39.2584 14.8526 39.4775 15.2627 39.7994 15.5845C40.1212 15.9064 40.5313 16.1255 40.9777 16.2143C41.4242 16.3031 41.8869 16.2576 42.3074 16.0834C42.7279 15.9092 43.0873 15.6142 43.3402 15.2358C43.5931 14.8573 43.7281 14.4124 43.7281 13.9572C43.7281 13.3468 43.4856 12.7615 43.054 12.3299C42.6224 11.8983 42.0371 11.6558 41.4267 11.6558ZM41.4267 14.8284C41.2539 14.8284 41.085 14.7771 40.9414 14.6811C40.7977 14.585 40.6858 14.4485 40.6198 14.2888C40.5537 14.1292 40.5366 13.9535 40.5704 13.784C40.6043 13.6146 40.6876 13.459 40.81 13.337C40.9323 13.2149 41.0881 13.1319 41.2576 13.0985C41.4271 13.065 41.6028 13.0826 41.7623 13.149C41.9218 13.2154 42.058 13.3276 42.1538 13.4715C42.2495 13.6154 42.3003 13.7844 42.2999 13.9572C42.2999 14.0718 42.2773 14.1852 42.2334 14.291C42.1895 14.3969 42.1252 14.493 42.044 14.5739C41.9629 14.6549 41.8666 14.719 41.7607 14.7626C41.6548 14.8063 41.5413 14.8286 41.4267 14.8284Z" fill="#6D6D6D"/>
<path d="M61.378 29.1058C60.8781 29.1058 60.3893 29.2541 59.9736 29.5319C59.5579 29.8096 59.2339 30.2044 59.0426 30.6663C58.8513 31.1282 58.8012 31.6365 58.8988 32.1268C58.9963 32.6172 59.2371 33.0676 59.5906 33.4211C59.9441 33.7746 60.3945 34.0154 60.8849 34.1129C61.3752 34.2105 61.8835 34.1604 62.3454 33.9691C62.8073 33.7778 63.2021 33.4538 63.4798 33.0381C63.7576 32.6224 63.9059 32.1336 63.9059 31.6337C63.9048 30.9636 63.6381 30.3212 63.1643 29.8474C62.6905 29.3736 62.0481 29.1069 61.378 29.1058ZM61.378 32.7313C61.1604 32.7313 60.9477 32.6668 60.7669 32.5458C60.586 32.4249 60.445 32.253 60.3619 32.052C60.2787 31.8509 60.257 31.6297 60.2996 31.4163C60.3422 31.203 60.4472 31.007 60.6012 30.8533C60.7552 30.6996 60.9513 30.595 61.1647 30.5528C61.3782 30.5106 61.5994 30.5327 61.8003 30.6162C62.0012 30.6998 62.1728 30.8411 62.2934 31.0222C62.414 31.2033 62.4781 31.4161 62.4777 31.6337C62.4772 31.925 62.3611 32.2042 62.1549 32.4099C61.9487 32.6157 61.6693 32.7313 61.378 32.7313Z" fill="#6D6D6D"/>
<path d="M35.2979 51.5992C34.8425 51.5988 34.3973 51.7335 34.0185 51.9862C33.6398 52.239 33.3445 52.5984 33.17 53.019C32.9956 53.4396 32.9499 53.9025 33.0386 54.3491C33.1273 54.7957 33.3466 55.206 33.6685 55.5279C33.9905 55.8499 34.4008 56.0691 34.8474 56.1579C35.294 56.2466 35.7569 56.2008 36.1775 56.0264C36.5981 55.852 36.9575 55.5567 37.2102 55.1779C37.4629 54.7991 37.5976 54.3539 37.5972 53.8986C37.5967 53.2889 37.3543 52.7044 36.9232 52.2733C36.4921 51.8422 35.9075 51.5998 35.2979 51.5992ZM35.2979 54.7718C35.1251 54.7722 34.9561 54.7213 34.8122 54.6256C34.6683 54.5299 34.5561 54.3937 34.4897 54.2342C34.4233 54.0746 34.4057 53.899 34.4392 53.7295C34.4726 53.56 34.5556 53.4042 34.6777 53.2818C34.7997 53.1595 34.9553 53.0761 35.1247 53.0423C35.2942 53.0084 35.4699 53.0256 35.6295 53.0916C35.7892 53.1577 35.9257 53.2696 36.0218 53.4132C36.1178 53.5569 36.1691 53.7258 36.1691 53.8986C36.1691 54.1298 36.0773 54.3516 35.914 54.5153C35.7507 54.679 35.5291 54.7712 35.2979 54.7718Z" fill="#6D6D6D"/>
<path d="M42.0918 45.0542C41.9376 44.9444 41.7461 44.9004 41.5594 44.9318C41.3727 44.9631 41.2061 45.0673 41.0962 45.2215C40.9483 45.4295 40.761 45.6063 40.5448 45.7418C40.3286 45.8774 40.0878 45.969 39.8362 46.0114C39.5846 46.0539 39.327 46.0463 39.0783 45.9892C38.8297 45.9321 38.5947 45.8265 38.3868 45.6785C38.3106 45.6215 38.2237 45.5803 38.1314 45.5574C38.039 45.5344 37.943 45.5302 37.849 45.5448C37.7549 45.5595 37.6648 45.5929 37.5838 45.6429C37.5028 45.6929 37.4327 45.7586 37.3775 45.8361C37.3223 45.9136 37.2831 46.0014 37.2623 46.0943C37.2415 46.1871 37.2395 46.2832 37.2563 46.3769C37.2732 46.4705 37.3086 46.5599 37.3605 46.6397C37.4124 46.7195 37.4797 46.7881 37.5584 46.8415C38.2872 47.3595 39.1918 47.5671 40.0736 47.4186C40.9553 47.2702 41.7421 46.7779 42.2611 46.0499C42.3154 45.9734 42.3541 45.8869 42.3749 45.7955C42.3958 45.7041 42.3984 45.6094 42.3827 45.517C42.367 45.4245 42.3332 45.3361 42.2833 45.2567C42.2334 45.1773 42.1683 45.1085 42.0918 45.0542Z" fill="#6D6D6D"/>
<path d="M71.4812 51.13C71.3281 51.0185 71.1369 50.9725 70.9498 51.0019C70.7627 51.0314 70.595 51.134 70.4835 51.2871C70.3721 51.4402 70.326 51.6314 70.3555 51.8185C70.3849 52.0056 70.4875 52.1733 70.6406 52.2848C71.0566 52.5884 71.335 53.0446 71.415 53.5533C71.4949 54.062 71.3698 54.5817 71.067 54.9983C70.9556 55.1514 70.9095 55.3425 70.939 55.5296C70.9684 55.7167 71.071 55.8845 71.2241 55.9959C71.3773 56.1074 71.5684 56.1535 71.7555 56.124C71.9426 56.0945 72.1103 55.992 72.2218 55.8388C72.7465 55.1156 72.9631 54.214 72.8243 53.3314C72.6855 52.4488 72.2025 51.6572 71.4812 51.13Z" fill="#6D6D6D"/>
<path d="M55.8307 39.2702C56.02 39.2794 56.2053 39.213 56.3457 39.0856C56.4862 38.9582 56.5702 38.7802 56.5794 38.5908C56.5886 38.4014 56.5222 38.2161 56.3948 38.0757C56.2674 37.9353 56.0894 37.8512 55.9 37.842C55.3875 37.79 54.9165 37.5367 54.5906 37.1377C54.2647 36.7387 54.1105 36.2267 54.1618 35.7141C54.1807 35.5247 54.1236 35.3356 54.0031 35.1883C53.8826 35.0409 53.7085 34.9476 53.5191 34.9286C53.3297 34.9097 53.1405 34.9667 52.9932 35.0873C52.8459 35.2078 52.7525 35.3819 52.7336 35.5713C52.6453 36.4607 52.9134 37.3487 53.4791 38.0407C54.0448 38.7326 54.8619 39.1719 55.7511 39.262C55.7773 39.2672 55.8039 39.2699 55.8307 39.2702Z" fill="#6D6D6D"/>
<path d="M30.1627 30.1055C29.7724 29.8966 29.3447 29.7667 28.9042 29.7233C28.4637 29.6798 28.0189 29.7237 27.5954 29.8524C27.1718 29.9811 26.7778 30.192 26.4359 30.4732C26.094 30.7543 25.8109 31.1001 25.6028 31.4908C25.5139 31.6581 25.4949 31.8538 25.5499 32.035C25.605 32.2163 25.7296 32.3683 25.8965 32.4579C25.9994 32.5132 26.1144 32.5419 26.2311 32.5415C26.3606 32.5417 26.4876 32.5066 26.5986 32.4401C26.7097 32.3736 26.8006 32.2782 26.8616 32.1641C26.9816 31.9388 27.1449 31.7393 27.3421 31.5772C27.5392 31.415 27.7664 31.2933 28.0107 31.219C28.2549 31.1447 28.5114 31.1193 28.7655 31.1443C29.0196 31.1692 29.2663 31.244 29.4914 31.3643C29.5744 31.4137 29.6666 31.4457 29.7623 31.4585C29.8581 31.4712 29.9554 31.4644 30.0484 31.4384C30.1415 31.4125 30.2283 31.3679 30.3036 31.3074C30.3789 31.2469 30.4411 31.1718 30.4866 31.0866C30.532 31.0014 30.5597 30.9078 30.5679 30.8116C30.5762 30.7154 30.5648 30.6185 30.5346 30.5267C30.5043 30.435 30.4557 30.3504 30.3918 30.278C30.3279 30.2056 30.2499 30.1469 30.1627 30.1055Z" fill="#6D6D6D"/>
<path d="M45.3929 20.7327C45.3039 20.703 45.21 20.691 45.1164 20.6976C45.0229 20.7042 44.9315 20.7291 44.8476 20.771C44.7637 20.8128 44.6888 20.8708 44.6273 20.9416C44.5658 21.0124 44.5188 21.0947 44.4891 21.1836C44.4593 21.2726 44.4474 21.3665 44.454 21.4601C44.4605 21.5536 44.4855 21.645 44.5273 21.7289C44.5692 21.8128 44.6272 21.8877 44.698 21.9492C44.7688 22.0107 44.851 22.0577 44.94 22.0874C45.4284 22.2516 45.8317 22.603 46.0612 23.0643C46.2907 23.5257 46.3277 24.0593 46.1641 24.5479C46.1045 24.7276 46.1186 24.9235 46.203 25.0929C46.2875 25.2622 46.4356 25.3913 46.615 25.4517C46.6881 25.4758 46.7645 25.4882 46.8414 25.4885C46.9913 25.4888 47.1374 25.4419 47.259 25.3543C47.3807 25.2668 47.4716 25.1431 47.5188 25.0009C47.8021 24.1529 47.7373 23.2272 47.3387 22.427C46.9402 21.6268 46.2403 21.0174 45.3929 20.7327Z" fill="#6D6D6D"/>
<path d="M70.2163 27.4104C70.4709 27.4322 70.7186 27.504 70.9455 27.6216C71.1723 27.7393 71.3737 27.9005 71.5381 28.0961C71.7026 28.2916 71.8269 28.5177 71.904 28.7613C71.981 29.0049 72.0093 29.2613 71.9872 29.5159C71.9708 29.7044 72.0299 29.8918 72.1516 30.0368C72.2732 30.1818 72.4474 30.2725 72.636 30.2891H72.6992C72.8776 30.2893 73.0495 30.2225 73.181 30.102C73.3124 29.9814 73.3939 29.816 73.4092 29.6383C73.4868 28.7484 73.2081 27.864 72.6344 27.1794C72.0606 26.4947 71.2387 26.0656 70.3489 25.9863C70.2551 25.9781 70.1607 25.9885 70.0709 26.0168C69.9811 26.0452 69.8978 26.0909 69.8257 26.1514C69.7537 26.212 69.6942 26.2861 69.6508 26.3696C69.6073 26.4531 69.5808 26.5444 69.5726 26.6381C69.5644 26.7319 69.5748 26.8264 69.6031 26.9161C69.6315 27.0059 69.6772 27.0892 69.7377 27.1613C69.7983 27.2334 69.8724 27.2928 69.9559 27.3363C70.0394 27.3797 70.1307 27.4063 70.2244 27.4144L70.2163 27.4104Z" fill="#6D6D6D"/>
<path d="M25.1764 51.6441C24.2852 51.5708 23.4014 51.8543 22.7192 52.4324C22.0371 53.0105 21.6124 53.8358 21.5386 54.7269C21.5234 54.9154 21.5836 55.1023 21.706 55.2465C21.8284 55.3907 22.003 55.4805 22.1915 55.4961H22.2527C22.4317 55.4961 22.6042 55.4288 22.7357 55.3074C22.8673 55.1861 22.9484 55.0196 22.9627 54.8412C22.9838 54.5868 23.0549 54.339 23.1718 54.1121C23.2888 53.8853 23.4494 53.6837 23.6445 53.519C23.8395 53.3543 24.0651 53.2297 24.3084 53.1523C24.5516 53.075 24.8078 53.0464 25.0621 53.0682C25.2515 53.0839 25.4393 53.0237 25.5844 52.9009C25.7294 52.7781 25.8197 52.6027 25.8353 52.4133C25.851 52.2239 25.7909 52.036 25.668 51.891C25.5452 51.746 25.3698 51.6557 25.1804 51.6401L25.1764 51.6441Z" fill="#6D6D6D"/>
</svg>
