<svg width="95" height="98" viewBox="0 0 95 98" fill="none" xmlns="http://www.w3.org/2000/svg">
<g clip-path="url(#clip0_217_2)">
<path d="M33.5182 48.6498C33.5182 51.4216 34.3136 54.1311 35.8038 56.4357C37.2941 58.7404 39.4122 60.5366 41.8904 61.5973C44.3685 62.6581 47.0955 62.9356 49.7263 62.3948C52.3571 61.8541 54.7737 60.5194 56.6704 58.5594C58.5671 56.5995 59.8588 54.1024 60.3821 51.3838C60.9054 48.6653 60.6368 45.8475 59.6103 43.2867C58.5838 40.7259 56.8455 38.5372 54.6152 36.9973C52.3849 35.4574 49.7628 34.6354 47.0804 34.6354C43.4849 34.6402 40.038 36.1182 37.4955 38.7454C34.9531 41.3726 33.5228 44.9344 33.5182 48.6498ZM47.0804 38.0389C49.1114 38.0389 51.0967 38.6612 52.7853 39.8272C54.474 40.9931 55.7901 42.6503 56.5673 44.5892C57.3445 46.5281 57.5479 48.6615 57.1517 50.7199C56.7555 52.7782 55.7775 54.6688 54.3414 56.1528C52.9053 57.6367 51.0756 58.6473 49.0837 59.0568C47.0918 59.4662 45.0271 59.256 43.1508 58.4529C41.2745 57.6498 39.6707 56.2898 38.5424 54.5449C37.4141 52.7999 36.8119 50.7484 36.8119 48.6498C36.8154 45.8367 37.8985 43.14 39.8234 41.1509C41.7484 39.1617 44.3581 38.0426 47.0804 38.0389Z" fill="#6D6D6D"/>
<path d="M80.3758 14.2505C73.7918 7.44524 65.4026 2.81043 56.2692 0.932316C47.1359 -0.945802 37.6687 0.0171355 29.065 3.69934C20.4613 7.38154 13.1076 13.6176 7.93406 21.6188C2.76048 29.62 -0.000612407 39.0269 4.89543e-06 48.6497C-0.00149146 52.0539 0.340053 55.449 1.01911 58.7801C1.02932 58.8751 1.04813 58.969 1.0753 59.0604C2.88333 67.5906 6.87934 75.461 12.6442 81.8461C18.4091 88.2311 25.7305 92.8956 33.8405 95.3503C41.9505 97.8051 50.5503 97.9596 58.738 95.7977C66.9257 93.6357 74.3996 89.2371 80.3758 83.0629C84.7481 78.5453 88.2164 73.182 90.5827 67.2793C92.949 61.3765 94.1669 55.0499 94.1669 48.6607C94.1669 42.2716 92.949 35.945 90.5827 30.0422C88.2164 24.1395 84.7481 18.7761 80.3758 14.2585V14.2505ZM16.1197 16.657C22.2434 10.3297 30.0452 6.02078 38.5387 4.27515C47.0322 2.52951 55.8359 3.42554 63.8366 6.84992C71.8372 10.2743 78.6756 16.0733 83.487 23.5135C88.2984 30.9538 90.8667 39.7012 90.8672 48.6497C90.8687 52.2082 90.4668 55.7547 89.6698 59.2165C87.0989 59.3386 84.6715 60.4759 82.8887 62.3938C80.7013 64.6901 80.5114 66.7643 80.3564 68.432C80.2014 70.0997 80.1045 71.3249 77.8861 73.0747C76.9755 73.7914 75.1737 73.8755 73.2517 73.9556C71.0934 74.0497 68.6483 74.1558 66.5752 75.2409C64.8935 76.1178 63.6031 77.7755 62.3554 79.3792C61.0379 81.0729 59.6759 82.8247 58.1143 83.2371C56.7988 83.5855 55.0008 82.8067 53.0982 81.9818C51.1956 81.157 49.171 80.2821 47.0804 80.2821C44.9899 80.2821 43.0117 81.145 41.0743 81.9778C39.1368 82.8107 37.3737 83.5795 36.0582 83.2331C34.4966 82.8207 33.1326 81.0689 31.8171 79.3752C30.5693 77.7735 29.279 76.1138 27.5973 75.2369C25.5242 74.1538 23.0791 74.0457 20.9208 73.9516C19.0065 73.8675 17.197 73.7874 16.2863 73.0707C13.9498 71.2368 13.818 70.0917 13.6146 68.3579C13.4325 66.7943 13.2058 64.8483 11.3691 62.5139C8.7961 59.2466 5.94415 57.709 4.059 57.1264C3.5497 54.3315 3.29349 51.4937 3.2937 48.6497C3.27829 42.7056 4.40396 36.8174 6.60555 31.3258C8.80714 25.8343 12.0409 20.8485 16.1197 16.657ZM78.0469 80.6485C72.6602 86.2058 65.9653 90.2174 58.6219 92.288C51.2784 94.3585 43.5396 94.4167 36.1678 92.4567C28.796 90.4968 22.0454 86.5863 16.5809 81.1105C11.1165 75.6347 7.12665 68.7824 5.00448 61.2286C6.47132 62.1178 7.76342 63.2839 8.81354 64.6661C10.0496 66.2377 10.1872 67.4109 10.3441 68.7703C10.5805 70.7884 10.8479 73.0787 14.2966 75.7775C16.0287 77.1369 18.4466 77.245 20.7851 77.3471C22.6994 77.4332 24.6775 77.5193 26.117 78.27C27.1633 78.8166 28.1785 80.1219 29.2519 81.5033C30.8309 83.5334 32.6211 85.8318 35.2464 86.5265C37.6314 87.1551 40.03 86.1261 42.3511 85.113C43.9805 84.4163 45.6564 83.6856 47.0804 83.6856C48.5045 83.6856 50.1804 84.4143 51.8137 85.117C53.6426 85.9179 55.52 86.7187 57.4013 86.7187C57.9131 86.7183 58.4229 86.651 58.9183 86.5185C61.5436 85.8238 63.3338 83.5154 64.9109 81.4953C65.9862 80.1139 67.0015 78.8086 68.0477 78.262C69.4872 77.5113 71.4654 77.4252 73.3796 77.3391C75.7181 77.237 78.1361 77.1289 79.8682 75.7695C83.2452 73.1168 83.468 70.6903 83.6482 68.7423C83.7838 67.2688 83.8807 66.2037 85.2485 64.7682C86.1855 63.7591 87.3888 63.0567 88.7088 62.7481C86.5702 69.5 82.9169 75.6337 78.0469 80.6485Z" fill="#6D6D6D"/>
<path d="M66.3195 42.7758C68.0121 44.0188 70.1129 44.5169 72.1606 44.1607C74.2084 43.8045 76.0356 42.623 77.241 40.8758C77.4943 40.5081 77.5959 40.0515 77.5234 39.6064C77.4509 39.1613 77.2103 38.7642 76.8545 38.5024C76.4986 38.2406 76.0567 38.1357 75.626 38.2106C75.1952 38.2855 74.8109 38.5341 74.5576 38.9018C73.8588 39.9136 72.8002 40.5977 71.614 40.8041C70.4278 41.0105 69.2108 40.7224 68.2298 40.0029C67.874 39.7412 67.4321 39.6362 67.0013 39.7111C66.5706 39.786 66.1863 40.0346 65.933 40.4023C65.6796 40.77 65.578 41.2267 65.6505 41.6718C65.723 42.1169 65.9636 42.514 66.3195 42.7758Z" fill="#6D6D6D"/>
<path d="M44.7555 66.9585C44.5794 66.8289 44.3802 66.7363 44.1694 66.6863C43.9587 66.6362 43.7404 66.6296 43.5272 66.6668C43.3139 66.704 43.1099 66.7842 42.9267 66.903C42.7435 67.0218 42.5848 67.1767 42.4596 67.359C41.7611 68.3718 40.7019 69.0566 39.515 69.2627C38.328 69.4688 37.1104 69.1794 36.1299 68.4581C35.774 68.1963 35.3321 68.0913 34.9014 68.1662C34.4707 68.2411 34.0863 68.4898 33.833 68.8575C33.5797 69.2252 33.4781 69.6818 33.5506 70.1269C33.6231 70.572 33.8637 70.9691 34.2195 71.2309C35.9119 72.4753 38.0131 72.9745 40.0615 72.6186C42.1098 72.2627 43.9376 71.0809 45.143 69.333C45.2685 69.1508 45.3581 68.9449 45.4066 68.7269C45.4551 68.509 45.4615 68.2833 45.4255 68.0628C45.3895 67.8422 45.3118 67.6312 45.1968 67.4418C45.0819 67.2523 44.9319 67.0881 44.7555 66.9585Z" fill="#6D6D6D"/>
<path d="M64.0449 56.8923C63.8189 56.9038 63.5976 56.9634 63.3949 57.0673C63.1921 57.1711 63.0123 57.3171 62.8666 57.4959C62.7208 57.6748 62.6123 57.8828 62.5478 58.107C62.4834 58.3311 62.4643 58.5666 62.4918 58.7987C62.5192 59.0308 62.5927 59.2545 62.7076 59.456C62.8225 59.6574 62.9764 59.8322 63.1596 59.9695C63.3427 60.1068 63.5513 60.2036 63.7723 60.2539C63.9933 60.3041 64.222 60.3068 64.444 60.2617C65.6386 60.1118 66.8418 60.458 67.7896 61.2241C68.7373 61.9903 69.3521 63.1137 69.4989 64.3479C69.5476 64.7602 69.7405 65.1398 70.0414 65.4153C70.3422 65.6908 70.7302 65.8431 71.1322 65.8434C71.1969 65.843 71.2616 65.839 71.3259 65.8314C71.5407 65.8044 71.7482 65.7339 71.9366 65.624C72.125 65.5141 72.2906 65.3669 72.4239 65.1908C72.5572 65.0147 72.6557 64.8132 72.7136 64.5978C72.7715 64.3825 72.7878 64.1574 72.7616 63.9355C72.5048 61.8092 71.4437 59.8745 69.8101 58.5546C68.1766 57.2347 66.1038 56.637 64.0449 56.8923Z" fill="#6D6D6D"/>
<path d="M54.8787 71.0327C54.8666 70.4168 54.9728 69.8044 55.1913 69.2312C55.4098 68.658 55.7362 68.1352 56.1516 67.6933C56.3018 67.5324 56.4197 67.3425 56.4988 67.1345C56.5779 66.9265 56.6166 66.7044 56.6126 66.4809C56.6087 66.2575 56.5622 66.037 56.4758 65.8321C56.3893 65.6272 56.2647 65.442 56.109 65.2868C55.9533 65.1317 55.7695 65.0098 55.5682 64.9281C55.3669 64.8463 55.152 64.8064 54.9358 64.8105C54.7195 64.8146 54.5062 64.8626 54.3079 64.9519C54.1096 65.0412 53.9303 65.17 53.7802 65.3309C52.3377 66.8748 51.5477 68.9475 51.5841 71.0932C51.6204 73.2389 52.48 75.2818 53.9739 76.7726C54.1282 76.9344 54.3122 77.0627 54.5152 77.1498C54.7181 77.237 54.9359 77.2813 55.1557 77.2801C55.3755 77.2789 55.5928 77.2323 55.7949 77.143C55.997 77.0537 56.1797 76.9234 56.3323 76.76C56.4849 76.5965 56.6043 76.4032 56.6835 76.1913C56.7627 75.9794 56.8 75.7533 56.7933 75.5263C56.7865 75.2993 56.7359 75.076 56.6443 74.8695C56.5528 74.663 56.4221 74.4776 56.2601 74.3241C55.8311 73.8968 55.4882 73.3859 55.2511 72.821C55.014 72.2562 54.8875 71.6484 54.8787 71.0327Z" fill="#6D6D6D"/>
<path d="M23.8928 58.642C24.1962 58.3173 24.3624 57.8814 24.3548 57.4301C24.3472 56.9788 24.1664 56.5491 23.8521 56.2356C23.5379 55.922 23.116 55.7503 22.6793 55.7582C22.2426 55.7661 21.8267 55.9529 21.5233 56.2776C20.0826 57.8228 19.2939 59.8955 19.3302 62.0409C19.3665 64.1862 20.2249 66.2291 21.717 67.7213C22.032 68.0354 22.4549 68.2073 22.8925 68.1992C23.3302 68.1912 23.7468 68.0038 24.0507 67.6783C24.3547 67.3528 24.521 66.9159 24.5132 66.4636C24.5054 66.0114 24.3241 65.5809 24.0091 65.2668C23.1453 64.4032 22.648 63.221 22.6262 61.9792C22.6044 60.7375 23.0599 59.5374 23.8928 58.642Z" fill="#6D6D6D"/>
<path d="M13.4886 50.7579C13.6063 50.785 13.7265 50.7984 13.8471 50.798C14.2529 50.7978 14.6443 50.6429 14.9463 50.3628C15.2484 50.0828 15.4397 49.6974 15.4836 49.2805C15.5276 48.8637 15.421 48.4447 15.1844 48.1041C14.9478 47.7634 14.5979 47.525 14.2016 47.4345C13.0275 47.1641 12.0051 46.4236 11.3586 45.3754C10.7121 44.3271 10.4943 43.0568 10.7529 41.8428C10.8066 41.6222 10.817 41.3927 10.7834 41.1678C10.7498 40.943 10.6729 40.7274 10.5572 40.5338C10.4416 40.3402 10.2895 40.1725 10.1101 40.0407C9.93064 39.9089 9.72744 39.8155 9.51249 39.7663C9.29754 39.717 9.07521 39.7128 8.85865 39.7538C8.6421 39.7949 8.4357 39.8804 8.25168 40.0053C8.06766 40.1302 7.90975 40.292 7.78728 40.4811C7.66481 40.6701 7.58028 40.8827 7.53867 41.1061C7.09181 43.2011 7.46725 45.3937 8.58265 47.2031C9.69805 49.0124 11.4624 50.2909 13.4886 50.7579Z" fill="#6D6D6D"/>
<path d="M16.7862 30.5373C16.8549 30.5375 16.9235 30.5328 16.9916 30.5232C19.0518 30.2543 20.9247 29.1517 22.1989 27.4573C23.4732 25.763 24.0448 23.6154 23.7882 21.486C23.7671 21.2594 23.7022 21.0395 23.5974 20.8392C23.4926 20.639 23.3499 20.4625 23.1779 20.3203C23.0059 20.178 22.808 20.0729 22.596 20.0111C22.384 19.9493 22.1621 19.9321 21.9435 19.9605C21.7249 19.9889 21.514 20.0623 21.3234 20.1765C21.1328 20.2906 20.9662 20.4431 20.8337 20.6249C20.7011 20.8067 20.6052 21.0142 20.5516 21.235C20.498 21.4558 20.4878 21.6855 20.5216 21.9104C20.6697 23.1441 20.3381 24.3882 19.5997 25.3696C18.8613 26.3511 17.7763 26.9898 16.5828 27.1458C16.166 27.1972 15.784 27.4111 15.5148 27.7438C15.2456 28.0765 15.1094 28.5029 15.1341 28.9358C15.1589 29.3687 15.3426 29.7756 15.6479 30.0732C15.9531 30.3709 16.3568 30.5368 16.7765 30.5373H16.7862Z" fill="#6D6D6D"/>
<path d="M74.2147 80.6105C74.0708 80.499 73.8899 80.4511 73.7119 80.4774C73.5338 80.5037 73.3732 80.6019 73.2653 80.7506C70.826 84.1 60.6911 88.9991 56.8356 89.1752C56.6557 89.1792 56.4848 89.2569 56.3603 89.3911C56.2359 89.5253 56.1681 89.7051 56.172 89.891C56.1759 90.0768 56.251 90.2535 56.3809 90.3821C56.5108 90.5107 56.6848 90.5807 56.8646 90.5767H56.8956C60.819 90.3985 71.4499 85.5716 74.3483 81.5935C74.4022 81.5199 74.4414 81.4361 74.4638 81.3469C74.4863 81.2576 74.4914 81.1646 74.479 81.0733C74.4666 80.982 74.4368 80.8941 74.3915 80.8147C74.3461 80.7352 74.286 80.6659 74.2147 80.6105Z" fill="#6D6D6D"/>
<path d="M75.3674 32.207C75.6382 32.2066 75.9048 32.1373 76.1434 32.0051C76.3821 31.873 76.5855 31.682 76.7358 31.4492C76.886 31.2164 76.9783 30.9489 77.0046 30.6704C77.0308 30.3919 76.9903 30.111 76.8864 29.8526C76.4267 28.7036 76.4267 27.4132 76.8866 26.2643C77.3464 25.1155 78.2285 24.202 79.3392 23.7243C79.7298 23.5428 80.0366 23.2113 80.1946 22.8C80.3526 22.3888 80.3493 21.9301 80.1855 21.5212C80.0217 21.1124 79.7102 20.7856 79.3171 20.6101C78.9241 20.4345 78.4803 20.4241 78.0799 20.5811C76.163 21.4058 74.6411 22.9826 73.8478 24.9654C73.0545 26.9482 73.0548 29.1752 73.8485 31.1579C73.9732 31.4682 74.1839 31.7334 74.4542 31.92C74.7246 32.1067 75.0423 32.2066 75.3674 32.207Z" fill="#6D6D6D"/>
<path d="M34.8376 20.1266C36.0235 19.9106 37.2438 20.19 38.2305 20.9032C39.2172 21.6165 39.8895 22.7053 40.0997 23.9305C40.1768 24.3749 40.4216 24.7695 40.7802 25.0275C41.1388 25.2854 41.5819 25.3856 42.012 25.3059C42.4421 25.2263 42.824 24.9733 43.0736 24.6028C43.3232 24.2322 43.4201 23.7743 43.3431 23.3299C42.9799 21.2164 41.8192 19.3386 40.1162 18.1093C38.4132 16.8801 36.3075 16.4002 34.2621 16.7752C34.0492 16.8146 33.8458 16.897 33.6637 17.0177C33.4815 17.1383 33.3242 17.2949 33.2006 17.4783C33.077 17.6618 32.9896 17.8687 32.9433 18.0871C32.8971 18.3055 32.8929 18.5312 32.9311 18.7512C32.9693 18.9713 33.049 19.1814 33.1658 19.3696C33.2825 19.5578 33.434 19.7204 33.6116 19.8482C33.7892 19.9759 33.9893 20.0662 34.2007 20.114C34.412 20.1618 34.6304 20.1661 34.8434 20.1266H34.8376Z" fill="#6D6D6D"/>
<path d="M28.8683 37.4383C29.0442 37.4384 29.219 37.4087 29.3856 37.3503C29.5909 37.2801 29.7808 37.1688 29.9445 37.0227C30.1082 36.8767 30.2425 36.6987 30.3396 36.4991C30.4368 36.2994 30.4949 36.0819 30.5108 35.859C30.5266 35.6361 30.4997 35.4122 30.4318 35.2001C30.0531 34.0197 30.1437 32.7322 30.6836 31.6209C31.2235 30.5095 32.1686 29.6653 33.3109 29.274C33.7255 29.132 34.0686 28.8255 34.2647 28.4221C34.4607 28.0187 34.4936 27.5513 34.3561 27.1228C34.2187 26.6943 33.9221 26.3398 33.5317 26.1372C33.1413 25.9347 32.689 25.9007 32.2743 26.0427C30.3041 26.7202 28.6745 28.1776 27.7428 30.0951C26.8112 32.0126 26.6536 34.2337 27.3047 36.2712C27.4135 36.6109 27.6231 36.9065 27.9038 37.116C28.1845 37.3256 28.522 37.4384 28.8683 37.4383Z" fill="#6D6D6D"/>
<path d="M54.6869 18.6631C54.8611 18.727 55.0446 18.7595 55.2294 18.7592C55.6189 18.7598 55.996 18.6178 56.2938 18.3582C56.5915 18.0987 56.7905 17.7385 56.8556 17.3417C56.9206 16.9449 56.8475 16.537 56.6491 16.1907C56.4507 15.8443 56.1399 15.5818 55.7719 15.4498C55.209 15.2473 54.6903 14.9321 54.2455 14.5222C53.8006 14.1124 53.4382 13.6159 53.1791 13.0613C52.92 12.5067 52.7692 11.9047 52.7354 11.2898C52.7016 10.6749 52.7853 10.0591 52.982 9.47773C53.0728 9.26307 53.1197 9.03134 53.1198 8.79706C53.1199 8.56278 53.0732 8.331 52.9827 8.11624C52.8921 7.90147 52.7595 7.70835 52.5934 7.54896C52.4272 7.38957 52.231 7.26735 52.017 7.18996C51.803 7.11257 51.5759 7.08166 51.3498 7.09919C51.1237 7.11671 50.9035 7.18229 50.7031 7.29181C50.5027 7.40132 50.3263 7.55242 50.185 7.73565C50.0437 7.91887 49.9406 8.13026 49.882 8.35659C49.5429 9.35997 49.3985 10.4226 49.457 11.4836C49.5155 12.5447 49.7757 13.5835 50.2228 14.5406C50.6699 15.4978 51.2952 16.3545 52.0628 17.0618C52.8304 17.7692 53.7254 18.3133 54.6966 18.6631H54.6869Z" fill="#6D6D6D"/>
<path d="M54.6094 26.0266C54.6666 26.2423 54.7643 26.4442 54.897 26.6207C55.0297 26.7973 55.1948 26.9452 55.3829 27.0558C55.5709 27.1664 55.7782 27.2377 55.9929 27.2655C56.2075 27.2933 56.4254 27.2771 56.6341 27.2179C57.7946 26.8894 59.0338 27.0503 60.0796 27.6651C61.1254 28.28 61.8924 29.2986 62.212 30.4972C62.3075 30.8565 62.5144 31.1735 62.8011 31.3996C63.0877 31.6256 63.4382 31.7482 63.7988 31.7485C63.946 31.7481 64.0926 31.7279 64.2347 31.6884C64.6559 31.5686 65.0138 31.2811 65.23 30.8888C65.4461 30.4965 65.5028 30.0317 65.3875 29.5963C65.1151 28.5714 64.65 27.612 64.0188 26.7729C63.3875 25.9337 62.6025 25.2313 61.7085 24.7057C60.8144 24.1802 59.829 23.8417 58.8084 23.7097C57.7878 23.5777 56.752 23.6548 55.7603 23.9365C55.3396 24.0563 54.9822 24.3437 54.7664 24.7356C54.5506 25.1274 54.4941 25.5918 54.6094 26.0266Z" fill="#6D6D6D"/>
<path d="M78.2737 45.3344C77.8523 45.4539 77.4941 45.7414 77.2779 46.1338C77.0618 46.5261 77.0052 46.9911 77.1209 47.4265C77.2365 47.8619 77.5147 48.2321 77.8944 48.4555C78.2741 48.6788 78.7242 48.7372 79.1455 48.6178C79.7202 48.454 80.3204 48.409 80.9119 48.4852C81.5034 48.5615 82.0745 48.7575 82.5926 49.0621C83.1107 49.3667 83.5656 49.7739 83.9313 50.2604C84.2969 50.7468 84.5661 51.303 84.7235 51.8971C84.8192 52.2563 85.0262 52.5731 85.3128 52.7991C85.5994 53.0251 85.9498 53.1478 86.3103 53.1484C86.4581 53.148 86.6053 53.1278 86.7481 53.0883C87.1689 52.9681 87.5264 52.6803 87.7421 52.2881C87.9579 51.8959 88.0143 51.4313 87.899 50.9962C87.3488 48.9267 86.0258 47.1677 84.2208 46.106C82.4158 45.0442 80.2766 44.7667 78.2737 45.3344Z" fill="#6D6D6D"/>
<path d="M20.5372 42.5055C20.1199 42.6287 19.7665 42.9171 19.5539 43.3081C19.3413 43.699 19.2867 44.1609 19.4018 44.5932C19.5169 45.0256 19.7926 45.3935 20.1688 45.617C20.545 45.8406 20.9914 45.9016 21.4109 45.7869C21.9857 45.6237 22.5859 45.5792 23.1774 45.6558C23.7688 45.7324 24.3398 45.9287 24.8578 46.2334C25.3758 46.5381 25.8306 46.9453 26.1963 47.4317C26.562 47.9181 26.8313 48.4742 26.9889 49.0682C27.0446 49.2856 27.1414 49.4894 27.2738 49.6679C27.4062 49.8464 27.5715 49.9961 27.7601 50.1081C27.9488 50.2202 28.1571 50.2926 28.373 50.321C28.5889 50.3494 28.808 50.3333 29.0179 50.2736C29.2277 50.2139 29.424 50.1119 29.5954 49.9734C29.7669 49.8348 29.91 49.6626 30.0166 49.4665C30.1233 49.2705 30.1912 49.0545 30.2166 48.8312C30.2419 48.6078 30.2242 48.3815 30.1644 48.1653C29.6134 46.096 28.2898 44.3375 26.4845 43.2762C24.6793 42.2149 22.5401 41.9377 20.5372 42.5055Z" fill="#6D6D6D"/>
</g>
<defs>
<clipPath id="clip0_217_2">
<rect width="94.1667" height="97.3056" fill="white"/>
</clipPath>
</defs>
</svg>
