<svg width="55" height="99" viewBox="0 0 55 99" fill="none" xmlns="http://www.w3.org/2000/svg">
<path d="M53.126 24.2136H51.1805V20.8121C51.1805 20.4514 51.0372 20.1055 50.7822 19.8505C50.5272 19.5955 50.1812 19.4522 49.8206 19.4522H33.3236V9.20294L39.4801 3.26715C39.5343 3.21597 39.5777 3.1545 39.6078 3.08634C39.6379 3.01818 39.6541 2.94469 39.6554 2.87019C39.6568 2.79568 39.6432 2.72166 39.6156 2.65246C39.588 2.58326 39.5468 2.52027 39.4945 2.46718L37.2738 0.171257C37.1704 0.0644771 37.0289 0.0029383 36.8802 6.32794e-05C36.8065 -0.00104953 36.7333 0.0125247 36.6649 0.0399942C36.5965 0.0674637 36.5343 0.108278 36.4818 0.160058L30.1525 6.25904C30.0988 6.31162 30.0559 6.37411 30.0261 6.44303L29.0469 8.74535C29.0178 8.8148 29.0026 8.88926 29.0021 8.96454V19.4522H5.01736C4.65668 19.4522 4.31077 19.5955 4.05573 19.8505C3.80069 20.1055 3.65741 20.4514 3.65741 20.8121V24.2136H1.71188C1.35133 24.214 1.00567 24.3574 0.750717 24.6124C0.495768 24.8673 0.352352 25.213 0.351929 25.5736L0.351929 34.3732C0.351929 34.7339 0.495209 35.0798 0.750249 35.3349C1.00529 35.5899 1.3512 35.7332 1.71188 35.7332H3.59501L9.28441 96.883C9.31589 97.2203 9.47209 97.5336 9.72243 97.7618C9.97278 97.9899 10.2993 98.1164 10.638 98.1166H44.2C44.5387 98.1164 44.8652 97.9899 45.1155 97.7618C45.3658 97.5336 45.522 97.2203 45.5535 96.883L51.2429 35.7268H53.126C53.4867 35.7268 53.8326 35.5835 54.0877 35.3285C54.3427 35.0734 54.486 34.7275 54.486 34.3668V25.5672C54.4839 25.2077 54.3397 24.8637 54.085 24.6101C53.8302 24.3566 53.4855 24.214 53.126 24.2136ZM30.1221 9.07974L31.0116 6.98701L36.8562 1.35202L38.2962 2.84956L32.3764 8.56136C32.3224 8.6128 32.2792 8.67457 32.2496 8.74301C32.2199 8.81145 32.2042 8.88515 32.2036 8.95974V19.4474H30.1237L30.1221 9.07974ZM6.37731 22.1721H48.4558V24.2136H6.37731V22.1721ZM45.8511 64.3178C36.4898 64.8282 32.2676 70.7927 28.1797 76.5717C24.0503 82.4083 20.1336 87.9313 11.2283 88.4273L9.4796 69.6184C18.9561 69.0776 24.0935 63.1098 29.0677 57.3308C34.0419 51.5518 38.7826 46.0528 47.5998 45.52L45.8511 64.3178ZM42.96 95.3967H11.8715L11.3275 89.5441C20.7496 89.0017 24.9863 83.0147 29.0869 77.2245C33.17 71.4535 37.0418 65.9913 45.7391 65.4553L42.96 95.3967ZM47.7102 44.3889C38.2994 44.8977 33.1812 50.8431 28.2245 56.6012C23.1783 62.4618 18.3977 68.0072 9.38041 68.4984L6.32612 35.7268H48.5102L47.7102 44.3889ZM51.7709 33.0069H3.07183V26.9271H51.7661L51.7709 33.0069Z" fill="#6D6D6D"/>
</svg>
