<svg width="98" height="98" viewBox="0 0 98 98" fill="none" xmlns="http://www.w3.org/2000/svg">
<path d="M51.6994 33.6604C51.7985 33.7669 51.9184 33.8518 52.0517 33.9099C52.185 33.9681 52.3289 33.9982 52.4743 33.9984C52.5899 33.9975 52.7046 33.9786 52.8144 33.9424C53.0084 33.8799 53.1802 33.7628 53.3092 33.6051C53.4383 33.4475 53.5191 33.2559 53.542 33.0534C53.9725 29.5231 53.8886 29.2713 53.8218 29.0668C53.6046 28.4564 53.1574 27.9552 52.5757 27.6702C51.9939 27.3851 51.3238 27.3388 50.7084 27.5412C50.093 27.7435 49.5811 28.1784 49.282 28.753C48.9829 29.3277 48.9203 29.9965 49.1076 30.6166C49.1743 30.8211 49.2583 31.0751 51.6994 33.6604ZM50.5951 29.4026C50.652 29.2881 50.7313 29.1861 50.8281 29.1025C50.9249 29.019 51.0374 28.9556 51.1591 28.9161C51.3952 28.8387 51.6519 28.8542 51.8771 28.9593C52.1022 29.0645 52.2788 29.2515 52.371 29.4822C52.371 29.7147 52.3236 30.4746 52.1557 31.9448C51.1483 30.8685 50.6489 30.283 50.5219 30.0893C50.4605 29.8592 50.4866 29.6145 50.5951 29.4026Z" fill="#6D6D6D"/>
<path d="M22.6046 28.8451C22.6913 28.8701 22.7814 28.881 22.8715 28.8773C23.2289 28.8773 24.0749 28.7762 26.5633 28.3069C26.7623 28.2675 26.9461 28.1728 27.0935 28.0335C27.241 27.8942 27.3461 27.7161 27.3967 27.5197C27.4473 27.3233 27.4414 27.1165 27.3796 26.9233C27.3179 26.7301 27.2028 26.5583 27.0476 26.4277C24.3073 24.161 24.049 24.0942 23.8424 24.0404C23.2132 23.8991 22.5538 24.0083 22.0036 24.3447C21.4535 24.6811 21.0559 25.2184 20.8951 25.8429C20.7342 26.4673 20.8227 27.1299 21.1418 27.6902C21.4609 28.2506 21.9855 28.6648 22.6046 28.8451ZM22.286 26.1887C22.3403 25.9794 22.4626 25.7939 22.6336 25.6615C22.8046 25.529 23.0147 25.4571 23.231 25.4568C23.2932 25.457 23.3553 25.4635 23.4162 25.4762C23.6163 25.5946 24.2277 26.051 25.3729 26.983C23.9177 27.2457 23.1643 27.349 22.9297 27.3576C22.6939 27.2811 22.4962 27.1176 22.3766 26.9005C22.2571 26.6834 22.2247 26.4289 22.286 26.1887Z" fill="#6D6D6D"/>
<path d="M22.1461 46.0854C22.5434 46.0853 22.9348 45.9893 23.287 45.8055C23.4786 45.7065 23.7175 45.5903 25.8701 42.7553C25.9921 42.5929 26.0657 42.3993 26.0823 42.1969C26.0989 41.9944 26.0579 41.7914 25.964 41.6113C25.8701 41.4312 25.7272 41.2814 25.5517 41.1791C25.3763 41.0768 25.1755 41.0262 24.9725 41.0332C21.4185 41.1817 21.1839 41.3044 20.9923 41.4034C20.4998 41.6606 20.1079 42.0756 19.8793 42.582C19.6506 43.0883 19.5985 43.6567 19.7312 44.1962C19.8639 44.7357 20.1738 45.2151 20.6112 45.5576C21.0487 45.9001 21.5884 46.0859 22.144 46.0854H22.1461ZM21.2097 43.3106C21.2822 43.0833 21.4353 42.8904 21.6402 42.7682C21.8684 42.723 22.6261 42.6541 24.105 42.5809C23.1987 43.7498 22.7058 44.3331 22.5379 44.4946C22.3663 44.5714 22.1761 44.5969 21.9903 44.5682C21.8045 44.5394 21.631 44.4575 21.4906 44.3324C21.3503 44.2073 21.2491 44.0443 21.1993 43.863C21.1494 43.6817 21.1531 43.4899 21.2097 43.3106Z" fill="#6D6D6D"/>
<path d="M75.7463 47.5577C75.9569 47.9607 76.2739 48.2982 76.6629 48.5335C77.0519 48.7688 77.498 48.8929 77.9527 48.8924C78.3503 48.8926 78.7419 48.7958 79.0936 48.6104C79.283 48.5114 79.5241 48.3951 81.6767 45.5623C81.7987 45.3999 81.8722 45.2063 81.8888 45.0039C81.9055 44.8014 81.8645 44.5985 81.7706 44.4183C81.6767 44.2382 81.5338 44.0884 81.3583 43.9861C81.1829 43.8838 80.9821 43.8332 80.7791 43.8402C77.2273 43.9866 76.9905 44.1114 76.7989 44.2104C76.216 44.5153 75.7778 45.0389 75.5805 45.6664C75.3831 46.294 75.4428 46.9741 75.7463 47.5577ZM77.4468 45.5752C77.675 45.53 78.4327 45.4611 79.9116 45.3879C79.0053 46.5568 78.5124 47.138 78.3445 47.3016C78.1195 47.3936 77.8682 47.3983 77.6399 47.3148C77.4117 47.2312 77.2228 47.0654 77.1105 46.8498C76.9981 46.6342 76.9703 46.3845 77.0325 46.1495C77.0948 45.9145 77.2425 45.7112 77.4468 45.5795V45.5752Z" fill="#6D6D6D"/>
<path d="M39.2056 37.7612C39.0671 37.9108 38.9747 38.0973 38.9396 38.2981C38.9045 38.499 38.9281 38.7057 39.0076 38.8935C40.368 42.1783 40.5661 42.3592 40.7297 42.5034C41.1854 42.9198 41.7806 43.1502 42.3979 43.1492H42.5206C43.0091 43.1247 43.4794 42.9564 43.8726 42.6655C44.2658 42.3746 44.5642 41.9741 44.7305 41.5141C44.8967 41.0542 44.9234 40.5553 44.8072 40.0803C44.6909 39.6052 44.4369 39.1751 44.077 38.8439C43.9198 38.6997 43.7218 38.5211 40.325 37.4684C40.1301 37.4037 39.9206 37.3969 39.7219 37.4488C39.5232 37.5008 39.3438 37.6093 39.2056 37.7612ZM43.0932 39.9913C43.2239 40.1252 43.3131 40.294 43.3503 40.4773C43.3875 40.6607 43.371 40.8509 43.3029 41.0251C43.2347 41.1993 43.1178 41.3502 42.9661 41.4597C42.8143 41.5692 42.6343 41.6326 42.4474 41.6423C42.2087 41.6553 41.9737 41.5785 41.7887 41.4271C41.6682 41.229 41.3431 40.5402 40.7662 39.1776C42.1698 39.6275 42.8844 39.888 43.0932 39.9913Z" fill="#6D6D6D"/>
<path d="M37.9054 25.3686H37.9162C38.1191 25.3694 38.318 25.3121 38.4893 25.2033C38.6606 25.0946 38.7971 24.939 38.8827 24.7551C40.4261 21.552 40.4283 21.2851 40.4304 21.0719C40.4368 20.4138 40.1817 19.7801 39.7212 19.3099C39.2607 18.8398 38.6324 18.5715 37.9743 18.5641H37.9506C37.2968 18.5641 36.6694 18.8221 36.2047 19.2819C35.74 19.7418 35.4755 20.3665 35.4687 21.0203C35.4687 21.2355 35.4687 21.5025 36.941 24.7357C37.0237 24.9229 37.1586 25.0823 37.3297 25.1946C37.5008 25.3069 37.7008 25.3673 37.9054 25.3686ZM37.9506 20.0774C38.1989 20.0804 38.4367 20.1777 38.6158 20.3496C38.7949 20.5215 38.9019 20.7551 38.915 21.0031C38.8461 21.2183 38.5512 21.9287 37.9183 23.2655C37.3134 21.9158 37.0336 21.2076 36.969 20.9837C36.9871 20.7363 37.0985 20.5049 37.2808 20.3366C37.4631 20.1684 37.7025 20.0757 37.9506 20.0774Z" fill="#6D6D6D"/>
<path d="M73.6496 32.4528H73.6604C73.8623 32.4541 74.0604 32.398 74.2315 32.2909C74.4027 32.1837 74.5398 32.0301 74.6269 31.8479C76.1703 28.6427 76.1725 28.3758 76.1746 28.1626C76.1809 27.5045 75.9258 26.8708 75.4653 26.4006C75.0048 25.9305 74.3766 25.6622 73.7185 25.6548H73.6926C73.0394 25.6559 72.4128 25.9143 71.9487 26.374C71.4846 26.8337 71.2202 27.4578 71.2128 28.111C71.2128 28.3262 71.2128 28.5932 72.6852 31.8264C72.7688 32.0124 72.9042 32.1705 73.0752 32.2815C73.2462 32.3926 73.4456 32.4521 73.6496 32.4528ZM73.7034 27.1617C73.9516 27.1646 74.1895 27.2619 74.3686 27.4338C74.5477 27.6057 74.6547 27.8394 74.6678 28.0873C74.5989 28.3026 74.304 29.0129 73.6711 30.3497C73.0662 29 72.7842 28.2918 72.7218 28.0679C72.7398 27.8205 72.8513 27.5892 73.0336 27.4209C73.2159 27.2526 73.4553 27.1599 73.7034 27.1617Z" fill="#6D6D6D"/>
<path d="M61.5131 42.4065C61.6903 42.5062 61.8921 42.5536 62.0952 42.5433C62.2983 42.533 62.4942 42.4654 62.6605 42.3484C65.5644 40.2948 65.6957 40.0623 65.8011 39.8772C66.1263 39.3048 66.2107 38.6268 66.0359 37.9922C65.8611 37.3576 65.4414 36.8184 64.8691 36.4933C64.5856 36.3321 64.2731 36.2284 63.9496 36.1881C63.626 36.1478 63.2977 36.1718 62.9833 36.2586C62.669 36.3453 62.3749 36.4932 62.1178 36.6938C61.8608 36.8944 61.6458 37.1437 61.4851 37.4275C61.3797 37.6126 61.2484 37.8451 60.9728 41.3905C60.9556 41.5938 60.9975 41.7979 61.0933 41.9781C61.1891 42.1583 61.3349 42.307 61.5131 42.4065ZM62.8262 38.1206C62.9629 37.9153 63.1722 37.7693 63.4122 37.7122C63.6521 37.655 63.9048 37.691 64.1193 37.8127C64.3339 37.9344 64.4943 38.1329 64.5683 38.3682C64.6423 38.6035 64.6244 38.8581 64.5182 39.0807C64.3503 39.2422 63.7518 39.7136 62.5507 40.5768C62.6777 39.0958 62.7724 38.3402 62.8262 38.1142V38.1206Z" fill="#6D6D6D"/>
<path d="M54.6075 19.436C54.7668 19.5781 54.967 19.7546 58.3811 20.7491C58.5768 20.8062 58.7846 20.8065 58.9805 20.7501C59.1763 20.6936 59.3522 20.5828 59.4875 20.4303C59.6228 20.2779 59.712 20.0901 59.7448 19.889C59.7776 19.6878 59.7526 19.4814 59.6727 19.2939C58.2584 16.0327 58.0582 15.8497 57.8967 15.7141C57.4037 15.2784 56.7578 15.0564 56.101 15.0967C55.4443 15.1371 54.8304 15.4366 54.3944 15.9294C54.1782 16.1736 54.0122 16.4581 53.9058 16.7665C53.7995 17.0749 53.755 17.4012 53.7747 17.7268C53.7945 18.0524 53.8783 18.371 54.0212 18.6642C54.1641 18.9575 54.3633 19.2197 54.6075 19.436ZM55.5159 16.9303C55.6804 16.7445 55.9094 16.6282 56.1564 16.6051C56.4035 16.5819 56.6501 16.6535 56.8463 16.8055C56.9711 17.0035 57.3091 17.6859 57.9075 19.0399C56.4911 18.6094 55.7721 18.364 55.5612 18.2671C55.3851 18.0918 55.2824 17.856 55.274 17.6077C55.2656 17.3594 55.3521 17.1172 55.5159 16.9303Z" fill="#6D6D6D"/>
<path d="M89.4821 81.4399H87.9408C89.5488 79.7652 90.9545 77.7245 90.9545 74.4396C90.9549 73.8231 90.9053 73.2076 90.8059 72.5991C94.2996 72.216 96.364 68.6297 96.364 65.1532C96.364 61.2398 93.8218 58.5081 90.1838 58.5081H88.86V54.5753C90.1022 54.0983 91.2061 53.3192 92.0717 52.3086C92.8138 51.4389 93.3577 50.418 93.6655 49.317C93.9733 48.2159 94.0377 47.061 93.854 45.9325C91.6003 32.1019 82.8994 19.9354 70.5369 13.2666L71.9167 9.4715L86.0035 14.7433C86.1432 14.7963 86.2956 14.8064 86.4412 14.7723C86.5868 14.7382 86.7188 14.6615 86.8205 14.5519C86.9222 14.4424 86.9889 14.305 87.0121 14.1573C87.0353 14.0096 87.0139 13.8584 86.9506 13.7229L84.7743 9.00438L89.4541 6.85176C89.5892 6.78899 89.7026 6.6876 89.7801 6.56039C89.8575 6.43319 89.8956 6.28587 89.8893 6.13706C89.8831 5.98825 89.8329 5.84463 89.7451 5.72433C89.6573 5.60403 89.5358 5.51245 89.396 5.46117L74.5472 0.0451915C74.3591 -0.0229238 74.1516 -0.0136341 73.9703 0.0710229C73.8802 0.113169 73.7995 0.172996 73.7329 0.246953C73.6663 0.32091 73.6153 0.407488 73.5829 0.501546L70.7629 8.25096L69.1894 12.5713C62.8195 9.41494 55.7981 7.79655 48.6893 7.8461C41.5804 7.89565 34.5823 9.61175 28.257 12.8566C21.9317 16.1014 16.4556 20.7844 12.2685 26.5296C8.08146 32.2747 5.30018 38.9218 4.14808 45.9368C3.96411 47.0643 4.02786 48.2183 4.33492 49.3186C4.64197 50.419 5.18496 51.4393 5.92614 52.3086C6.78572 53.3203 7.88353 54.1022 9.12062 54.5839V58.5081H8.53296C5.65707 58.5081 3.64006 59.438 2.53577 61.2742C1.62091 62.7961 1.62091 64.5656 1.62091 65.6225C1.62091 69.5101 3.67666 72.0093 7.19403 72.5324C7.08722 73.1625 7.03322 73.8005 7.03259 74.4396C7.01091 77.0248 7.96218 79.5236 9.69753 81.4399H8.50928C7.19533 81.4456 5.93704 81.9711 5.00935 82.9016C4.08165 83.8322 3.55996 85.092 3.55826 86.406V88.0054C3.56168 90.6554 4.61608 93.1959 6.49015 95.0696C8.36423 96.9433 10.905 97.9971 13.555 98H84.4536C87.1034 97.9971 89.6439 96.9432 91.5177 95.0695C93.3914 93.1958 94.4453 90.6552 94.4482 88.0054V86.406C94.4465 85.0894 93.9227 83.8273 92.9917 82.8963C92.0608 81.9654 90.7986 81.4416 89.4821 81.4399ZM74.741 1.72208L87.1637 6.24257L83.4591 7.96467C83.3691 8.00615 83.2882 8.06496 83.221 8.13774C83.1538 8.21052 83.1016 8.29584 83.0674 8.38881C83.0332 8.48178 83.0177 8.58059 83.0218 8.67957C83.0258 8.77854 83.0493 8.87575 83.091 8.96563L84.8131 12.7026L72.442 8.05723L74.741 1.72208ZM92.7196 65.1532C92.7196 67.4393 91.4151 68.9763 90.1989 68.9763C89.9828 68.9779 89.7669 68.9628 89.5531 68.9311C88.2904 66.64 86.2765 64.8542 83.8508 63.8746C83.6334 63.7863 83.401 63.741 83.1663 63.7411C79.0527 63.7411 77.4726 65.4029 76.2048 66.7375C75.0144 67.9882 74.0737 68.9763 70.3927 68.9763C67.1917 68.9763 65.0564 68.1604 63.0372 67.1616L67.7729 62.1675H90.1989C92.3924 62.1675 92.7196 64.0382 92.7196 65.1532ZM53.0125 64.2922L50.9158 62.1675H62.7251L58.7212 66.391L58.7083 66.406L56.9431 68.2745L53.0125 64.2922ZM12.7844 55.1199H85.2156V58.5081H12.7844V55.1199ZM8.72454 49.9407C8.32627 49.475 8.0341 48.9282 7.86832 48.3383C7.70253 47.7484 7.6671 47.1295 7.76448 46.5245C8.83091 40.0424 11.41 33.903 15.2927 28.604C19.1754 23.305 24.2523 18.9957 30.1117 16.0255C35.971 13.0554 42.448 11.508 49.0172 11.5088C55.5864 11.5097 62.0629 13.0588 67.9215 16.0305L64.8583 24.4472C64.8244 24.5401 64.8091 24.6387 64.8133 24.7375C64.8176 24.8363 64.8413 24.9332 64.8831 25.0228C64.9249 25.1124 64.9839 25.1929 65.0569 25.2596C65.1298 25.3263 65.2152 25.378 65.3082 25.4116C65.3908 25.4423 65.4784 25.4576 65.5665 25.4568C65.7211 25.4569 65.872 25.4095 65.9987 25.3209C66.1254 25.2323 66.2217 25.1069 66.2747 24.9617L69.2647 16.743C74.7707 19.8129 79.5148 24.0831 83.1452 29.2368C86.7755 34.3906 89.1989 40.2955 90.2355 46.5137C90.3358 47.1198 90.3026 47.7404 90.1383 48.3323C89.974 48.9242 89.6824 49.4731 89.284 49.9407C88.8766 50.4205 88.3696 50.8059 87.7983 51.0702C87.2269 51.3345 86.605 51.4713 85.9755 51.4712H12.0245C11.3964 51.4705 10.776 51.3332 10.2061 51.069C9.63634 50.8047 9.1308 50.4197 8.72454 49.9407ZM5.28036 65.6332C5.28036 63.627 5.28036 62.1783 8.53296 62.1783H45.7732L47.8677 64.3029C45.883 64.8626 44.4235 65.7624 43.0889 66.5955C41.0245 67.887 39.2422 68.987 35.5268 68.987C31.6521 68.987 30.1129 67.7708 28.4877 66.4835C26.9012 65.2264 25.1038 63.8035 21.6682 63.8035C17.8366 63.8035 15.2104 65.5751 13.0987 67.0002C11.7339 67.9215 10.5521 68.7223 9.3036 68.9375C9.08397 68.9761 8.86142 68.9955 8.63844 68.9956C6.28348 68.9763 5.28036 67.9731 5.28036 65.6225V65.6332ZM10.692 74.459C10.6914 73.7223 10.7965 72.9894 11.0042 72.2827C12.5454 71.7962 13.865 70.9072 15.1479 70.0418C17.1068 68.7201 18.9581 67.4716 21.6704 67.4716C23.823 67.4716 24.8326 68.2637 26.2167 69.3594C28.0701 70.8275 30.3777 72.6551 35.5289 72.6551C40.2884 72.6551 42.8048 71.0901 45.022 69.7103C46.772 68.6232 48.3068 67.6739 50.9825 67.4651L55.6602 72.2009C55.8285 72.3731 56.0294 72.5101 56.2511 72.6039C56.4728 72.6978 56.711 72.7466 56.9518 72.7477H56.969C57.2147 72.745 57.4574 72.693 57.6826 72.5946C57.9079 72.4962 58.111 72.3536 58.2799 72.175L60.3959 69.9406C62.9145 71.2494 65.8141 72.6465 70.3776 72.6465C75.6343 72.6465 77.4145 70.7737 78.846 69.2712C79.8577 68.2078 80.5423 67.4888 82.7961 67.4178C84.4774 68.1923 85.8259 69.5431 86.5976 71.2257C87.064 72.2381 87.3035 73.3401 87.2993 74.4547C87.2993 76.5169 86.4684 77.7525 85.0348 79.1904C84.3173 79.9111 83.4641 80.4825 82.5245 80.8715C81.585 81.2606 80.5776 81.4596 79.5607 81.4571H18.4264C13.9446 81.4399 10.692 78.4951 10.692 74.4396V74.459ZM90.7887 88.0205C90.787 89.7001 90.119 91.3105 88.9313 92.4982C87.7436 93.6859 86.1332 94.3539 84.4536 94.3556H13.5486C11.8672 94.3522 10.256 93.6814 9.0689 92.4907C7.88183 91.3 7.216 89.6867 7.21771 88.0054V86.406C7.21769 86.062 7.35328 85.732 7.59507 85.4873C7.83687 85.2427 8.16536 85.1033 8.50928 85.0993H89.4821C89.8286 85.0993 90.161 85.237 90.406 85.4821C90.6511 85.7271 90.7887 86.0594 90.7887 86.406V88.0205Z" fill="#6D6D6D"/>
<path d="M17.7505 31.4282C17.6772 31.3596 17.591 31.3063 17.4969 31.2715C17.4027 31.2367 17.3026 31.221 17.2023 31.2254C17.1021 31.2298 17.0037 31.2542 16.913 31.2972C16.8223 31.3401 16.7411 31.4008 16.6742 31.4755C14.3687 34.0113 11.1032 41.4507 10.2142 46.2274C10.1777 46.4238 10.2207 46.6266 10.3337 46.7913C10.4467 46.956 10.6205 47.0691 10.8169 47.1057C10.8629 47.1153 10.9098 47.1196 10.9568 47.1186C11.1334 47.1182 11.3041 47.0556 11.4391 46.9418C11.5742 46.8281 11.6648 46.6704 11.6952 46.4965C12.5131 42.103 15.7055 34.7647 17.7978 32.4743C17.9271 32.3279 17.9945 32.1369 17.9856 31.9417C17.9768 31.7465 17.8925 31.5624 17.7505 31.4282Z" fill="#6D6D6D"/>
<path d="M32.3538 91.3742H13.7897C11.777 91.3742 10.3196 89.6736 10.3196 88.5263C10.3196 88.3265 10.2403 88.1348 10.099 87.9936C9.95767 87.8523 9.76604 87.7729 9.56622 87.7729C9.3664 87.7729 9.17477 87.8523 9.03348 87.9936C8.89218 88.1348 8.81281 88.3265 8.81281 88.5263C8.81281 90.539 10.9869 92.881 13.7897 92.881H32.3538C32.5536 92.881 32.7453 92.8017 32.8866 92.6604C33.0279 92.5191 33.1072 92.3275 33.1072 92.1276C33.1072 91.9278 33.0279 91.7362 32.8866 91.5949C32.7453 91.4536 32.5536 91.3742 32.3538 91.3742Z" fill="#6D6D6D"/>
</svg>
