<svg width="96" height="96" viewBox="0 0 96 96" fill="none" xmlns="http://www.w3.org/2000/svg">
<g clip-path="url(#clip0_217_328)">
<path d="M96 67.8476C96.0053 65.8251 95.6095 63.8217 94.8357 61.9531C94.0618 60.0845 92.9252 58.3879 91.4915 56.9614L39.0365 4.4978C36.3513 1.82207 32.7744 0.229478 28.9892 0.0243185C25.204 -0.180841 21.4759 1.01582 18.5173 3.38564C16.4302 1.87547 13.8732 1.15837 11.3052 1.363C8.73711 1.56763 6.326 2.6806 4.50436 4.50224C2.68272 6.32388 1.56975 8.735 1.36512 11.303C1.16049 13.8711 1.87758 16.428 3.38776 18.5152C1.01543 21.4733 -0.182044 25.2028 0.0247521 28.989C0.231549 32.7753 1.82807 36.3522 4.50847 39.0344L56.9635 91.4894C59.6466 94.1678 63.2227 95.7634 67.0082 95.9709C70.7937 96.1784 74.5229 94.9834 77.4827 92.6143C79.5706 94.1203 82.1265 94.8338 84.6926 94.627C87.2587 94.4203 89.6674 93.3067 91.4873 91.4858C93.3071 89.6649 94.4193 87.2556 94.6247 84.6894C94.83 82.1232 94.1151 79.5677 92.6079 77.4805C94.8108 74.7541 96.0085 71.3528 96 67.8476ZM36.4657 7.07713L88.9207 59.5321C90.9034 61.515 92.1125 64.1409 92.3301 66.9365C92.5478 69.7321 91.7596 72.5135 90.1077 74.7793L21.2185 5.89226C23.4854 4.24346 26.2659 3.45701 29.0605 3.67419C31.8552 3.89136 34.4808 5.09792 36.4657 7.07713ZM59.5343 88.9186L7.07925 36.4636C5.09658 34.4807 3.88746 31.8548 3.66982 29.0592C3.45218 26.2636 4.24034 23.4822 5.89224 21.2164L74.7814 90.1035C72.5146 91.7523 69.7341 92.5387 66.9394 92.3215C64.1448 92.1044 61.5192 90.8978 59.5343 88.9186ZM88.9207 88.9186C87.5685 90.2662 85.7374 91.0228 83.8283 91.0228C81.9193 91.0228 80.0882 90.2662 78.736 88.9186L7.0878 17.2704C6.4185 16.6022 5.88736 15.8088 5.52471 14.9353C5.16206 14.0619 4.97499 13.1256 4.9742 12.1798C4.97259 10.2698 5.7298 8.4374 7.07925 7.08568C8.42869 5.73397 10.2598 4.97368 12.1698 4.97208C14.0798 4.97047 15.9123 5.72768 17.264 7.07713L88.9122 78.7253C90.2635 80.0767 91.0233 81.9091 91.0249 83.8202C91.0265 85.7313 90.2698 87.5649 88.9207 88.9186Z" fill="#6D6D6D"/>
<path d="M69.4624 88.5615C69.4121 88.3695 69.2877 88.2053 69.1164 88.1051C68.9452 88.0048 68.7411 87.9767 68.5491 88.0268C67.7031 88.2492 66.8137 88.2464 65.9691 88.0187C65.1245 87.7909 64.3543 87.3462 63.7348 86.7286L56.3155 79.3092C56.246 79.239 56.1633 79.1832 56.0722 79.1449C55.9811 79.1066 55.8834 79.0867 55.7846 79.0862C55.6858 79.0857 55.5878 79.1047 55.4963 79.142C55.4049 79.1794 55.3217 79.2344 55.2514 79.3039C55.1812 79.3734 55.1254 79.4561 55.0871 79.5472C55.0488 79.6383 55.0289 79.736 55.0284 79.8348C55.0279 79.9336 55.0469 80.0315 55.0842 80.123C55.1216 80.2145 55.1766 80.2977 55.2461 80.3679L62.6654 87.7872C63.4699 88.5871 64.4689 89.1636 65.564 89.4599C66.6591 89.7562 67.8125 89.762 68.9106 89.4769C69.0074 89.4539 69.0987 89.4118 69.179 89.3531C69.2594 89.2944 69.3273 89.2203 69.3787 89.135C69.43 89.0498 69.4639 88.9552 69.4783 88.8567C69.4927 88.7582 69.4872 88.6578 69.4624 88.5615Z" fill="#6D6D6D"/>
<path d="M24.987 6.85044C25.011 6.94581 25.0536 7.03552 25.1122 7.11444C25.1709 7.19336 25.2446 7.25994 25.329 7.31039C25.4134 7.36084 25.5069 7.39416 25.6042 7.40846C25.7015 7.42275 25.8006 7.41773 25.896 7.39368C26.9465 7.12839 28.0399 7.07898 29.11 7.24846C30.1802 7.41793 31.2048 7.80276 32.1219 8.37965C32.291 8.48328 32.4943 8.51559 32.6872 8.46947C32.88 8.42336 33.0467 8.3026 33.1506 8.13369C33.2555 7.96521 33.2892 7.76197 33.2443 7.56866C33.1994 7.37535 33.0795 7.20779 32.9111 7.10281C31.8239 6.41878 30.6092 5.96258 29.3405 5.76185C28.0718 5.56112 26.7755 5.62005 25.5303 5.93505C25.3369 5.98444 25.171 6.10862 25.0691 6.28027C24.9673 6.45193 24.9377 6.65702 24.987 6.85044Z" fill="#6D6D6D"/>
<path d="M80.1476 80.5753C80.1925 80.308 80.246 80.0364 80.2973 79.7626C80.3593 79.4482 80.4213 79.121 80.4727 78.8044C80.5047 78.6055 80.5283 78.4237 80.5454 78.2676C80.6758 77.2111 80.6737 75.9963 79.6535 74.9761C78.5071 73.8297 77.0763 73.9516 75.8273 74.1591C75.5279 74.2083 75.2242 74.266 74.9205 74.3238C74.6168 74.3815 74.3366 74.435 74.05 74.482C72.6876 74.6959 72.0503 74.6061 71.5263 74.0842C71.0023 73.5624 70.9039 72.9229 71.1285 71.5583C71.1755 71.2739 71.2311 70.983 71.2867 70.6922C71.3423 70.4013 71.4022 70.0826 71.4535 69.7832C71.6674 68.532 71.7808 67.1033 70.6344 65.957C69.488 64.8106 68.0679 64.9346 66.8082 65.14C66.5109 65.1891 66.2072 65.2469 65.9056 65.3046C65.6041 65.3624 65.3196 65.418 65.033 65.465C63.6685 65.6789 63.0311 65.5891 62.5093 65.0651C61.9874 64.5411 61.8848 63.9059 62.1115 62.5392C62.1585 62.2548 62.2141 61.9639 62.2676 61.673C62.3211 61.3822 62.3852 61.0635 62.4344 60.7641C62.6483 59.515 62.7638 58.0863 61.6174 56.94C60.4711 55.7936 59.0402 55.9155 57.7891 56.1208C57.4918 56.17 57.1859 56.2278 56.8822 56.2877C56.5785 56.3475 56.3005 56.3989 56.0139 56.4459C54.6494 56.6598 54.012 56.5678 53.4902 56.046C52.9683 55.5241 52.8657 54.8846 53.0902 53.5201C53.1373 53.2335 53.1929 52.9426 53.2506 52.6518C53.3084 52.3609 53.3661 52.0422 53.4153 51.7449C53.6292 50.4959 53.7447 49.0651 52.5983 47.9187C51.4519 46.7724 50.019 46.8943 48.77 47.1017C48.4705 47.1509 48.1668 47.2087 47.8631 47.2664C47.5594 47.3242 47.2792 47.3776 46.9948 47.4247C45.6303 47.6385 44.9929 47.5487 44.4711 47.0269C43.9492 46.505 43.8444 45.8655 44.0711 44.4924C44.1182 44.2058 44.1738 43.915 44.2294 43.6241C44.285 43.3332 44.3449 43.0146 44.3941 42.7173C44.6079 41.4661 44.7234 40.0374 43.5771 38.8911C42.4307 37.7447 40.9999 37.8666 39.7487 38.0741C39.4535 38.1211 39.152 38.1788 38.8483 38.2366C38.5446 38.2943 38.2623 38.3499 37.9735 38.397C36.609 38.6216 35.9717 38.521 35.4498 37.9971C34.9279 37.4731 34.8253 36.8379 35.0499 35.4733C35.0969 35.1867 35.1547 34.8959 35.2103 34.6029C35.2659 34.3098 35.3258 33.9955 35.3749 33.696C35.5888 32.447 35.7043 31.0183 34.5579 29.8719C33.4116 28.7256 31.9807 28.8475 30.7296 29.0528C30.4302 29.102 30.1265 29.1597 29.8228 29.2175C29.519 29.2752 29.2389 29.3287 28.9544 29.3757C27.5899 29.5896 26.9525 29.4998 26.4286 28.9779C25.9046 28.4561 25.804 27.8166 26.0307 26.4521C26.0778 26.1655 26.1334 25.8746 26.1869 25.5966C26.2403 25.3185 26.3045 24.9849 26.3537 24.6855C26.5676 23.4364 26.6831 22.0077 25.5346 20.8592C24.386 19.7107 22.9681 19.8348 21.7062 20.0422C21.4089 20.0893 21.1073 20.147 20.8036 20.2048C20.4999 20.2625 20.2176 20.3181 19.931 20.3652C18.5665 20.5791 17.9292 20.4871 17.4073 19.9652C16.8854 19.4434 16.7828 18.8039 17.0074 17.4394C17.0544 17.1528 17.11 16.8641 17.1635 16.5839C17.2169 16.3037 17.2811 15.9722 17.3303 15.6706C17.5442 14.4216 17.6597 12.9908 16.5112 11.8444C16.4409 11.7742 16.3576 11.7185 16.2658 11.6805C16.1741 11.6425 16.0758 11.6229 15.9765 11.6229C15.8772 11.6229 15.7788 11.6425 15.6871 11.6805C15.5954 11.7185 15.512 11.7742 15.4418 11.8444C15.3716 11.9146 15.3159 11.998 15.2779 12.0897C15.2399 12.1815 15.2203 12.2798 15.2203 12.3791C15.2203 12.4784 15.2399 12.5767 15.2779 12.6685C15.3159 12.7602 15.3716 12.8436 15.4418 12.9138C15.9658 13.4378 16.0663 14.0751 15.8417 15.4396C15.7947 15.7262 15.7391 16.0192 15.6835 16.3123C15.6279 16.6053 15.568 16.9175 15.5188 17.2148C15.3049 18.4638 15.1894 19.8947 16.3379 21.0432C17.4864 22.1917 18.9044 22.0655 20.1641 21.8623C20.4636 21.8131 20.7694 21.7532 21.0731 21.6955C21.3768 21.6377 21.6549 21.5843 21.9286 21.5372C23.2931 21.3233 23.9305 21.4132 24.4545 21.9372C24.9785 22.4612 25.079 23.0985 24.8544 24.463C24.8074 24.7496 24.7518 25.0426 24.6962 25.3335C24.6406 25.6244 24.5807 25.9409 24.5315 26.2382C24.3176 27.4872 24.2021 28.9181 25.3485 30.0666C26.4949 31.2151 27.915 31.0889 29.1747 30.8836C29.4741 30.8344 29.7778 30.7766 30.0815 30.7189C30.3852 30.6611 30.6654 30.6077 30.952 30.5606C32.3165 30.3467 32.9539 30.4366 33.4779 30.9606C34.0019 31.4846 34.1003 32.1198 33.8757 33.4822C33.8286 33.7687 33.773 34.0596 33.7174 34.3526C33.6618 34.6456 33.6019 34.96 33.5527 35.2595C33.3389 36.5085 33.2234 37.9393 34.3697 39.0857C35.5161 40.232 36.9362 40.1101 38.196 39.9048C38.4954 39.8535 38.8034 39.7957 39.1092 39.738C39.4151 39.6803 39.6867 39.6268 39.9647 39.5797C41.3314 39.3552 41.9666 39.4557 42.4906 39.9797C43.0146 40.5037 43.1151 41.1389 42.8905 42.5034C42.8435 42.79 42.7879 43.0809 42.7301 43.3739C42.6724 43.6669 42.6146 43.9813 42.5654 44.2786C42.3516 45.5297 42.2361 46.9584 43.3846 48.1069C44.5331 49.2554 45.9511 49.1293 47.2087 48.9239C47.5081 48.8747 47.8118 48.817 48.1155 48.7593C48.4192 48.7015 48.6994 48.648 48.986 48.601C50.3505 48.3743 50.9878 48.4769 51.5118 48.9988C52.0358 49.5206 52.1342 50.158 51.9096 51.5225C51.8626 51.8091 51.807 52.1 51.7514 52.3909C51.6958 52.6817 51.6359 53.0004 51.5867 53.2998C51.3728 54.5489 51.2552 55.9775 52.4037 57.126C53.5522 58.2746 54.9702 58.1505 56.2278 57.9431C56.5272 57.8939 56.8309 57.8361 57.1367 57.7784C57.4426 57.7206 57.7185 57.6672 58.0051 57.6201C59.3696 57.4062 60.0069 57.4961 60.5309 58.0179C61.0549 58.5398 61.1533 59.1793 60.9288 60.5416C60.8817 60.8304 60.8261 61.1212 60.7705 61.4142C60.7149 61.7073 60.655 62.0195 60.6058 62.3189C60.3919 63.568 60.2764 64.9988 61.4228 66.1452C62.5692 67.2915 63.9893 67.1675 65.2469 66.9622C65.5485 66.913 65.8522 66.8552 66.158 66.7975C66.4638 66.7397 66.7397 66.6863 67.0242 66.6392C68.3887 66.4146 69.0261 66.5152 69.5479 67.037C70.0698 67.5589 70.1724 68.1962 69.9479 69.5608C69.9008 69.8473 69.8452 70.1404 69.7896 70.4312C69.734 70.7221 69.672 71.0386 69.6228 71.3359C69.4089 72.5871 69.2934 74.0158 70.4398 75.1643C71.5862 76.3128 73.0063 76.1866 74.266 75.9813C74.5654 75.9321 74.8691 75.8743 75.1728 75.8166C75.4765 75.7589 75.7567 75.7054 76.0433 75.6583C77.4078 75.4316 78.0452 75.5343 78.567 76.0561C79.0333 76.5224 79.1595 77.0763 79.029 78.1179C79.014 78.2612 78.9926 78.4152 78.9648 78.5906C78.9199 78.8857 78.8579 79.198 78.8002 79.4995C78.7424 79.8011 78.6889 80.0706 78.644 80.355C78.4302 81.6062 78.3125 83.037 79.461 84.1855C79.6028 84.3259 79.7946 84.4042 79.9942 84.4032C80.1937 84.4022 80.3847 84.322 80.5251 84.1802C80.6655 84.0384 80.7438 83.8466 80.7428 83.6471C80.7418 83.4475 80.6615 83.2566 80.5197 83.1162C80.0235 82.5793 79.923 81.942 80.1476 80.5753Z" fill="#6D6D6D"/>
</g>
<defs>
<clipPath id="clip0_217_328">
<rect width="96" height="96" fill="white"/>
</clipPath>
</defs>
</svg>
