<svg width="29" height="29" viewBox="0 0 29 29" fill="none" xmlns="http://www.w3.org/2000/svg">
<rect width="29" height="29" fill="white"/>
<path d="M14.9755 3.08156L17.0554 9.48278C17.2562 10.1008 17.8322 10.5193 18.482 10.5193L25.2126 10.5193C25.697 10.5193 25.8984 11.1391 25.5065 11.4238L20.0613 15.3799C19.5356 15.7619 19.3156 16.4389 19.5164 17.057L21.5963 23.4582C21.746 23.9189 21.2187 24.3019 20.8269 24.0172L15.3817 20.0611C14.8559 19.6791 14.1441 19.6791 13.6183 20.0611L8.17312 24.0172C7.78126 24.3019 7.25402 23.9189 7.4037 23.4582L9.48358 17.057C9.68439 16.4389 9.46441 15.7619 8.93867 15.3799L3.49347 11.4238C3.10162 11.1391 3.303 10.5193 3.78736 10.5193L10.518 10.5193C11.1678 10.5193 11.7438 10.1008 11.9446 9.48278L14.0245 3.08156C14.1741 2.6209 14.8259 2.62091 14.9755 3.08156Z" fill="#FFA500" stroke="#FFA500"/>
</svg>
